# WaveFront *.obj file (generated by Cinema 4D)

mtllib ./Cafemari_Dalette.mtl

v -100.000000 -5.000000 75.000000
v -100.000000 5.000000 75.000000
v 100.000000 -5.000000 75.000000
v 100.000000 5.000000 75.000000
v 100.000000 -5.000000 -75.000000
v 100.000000 5.000000 -75.000000
v -100.000000 -5.000000 -75.000000
v -100.000000 5.000000 -75.000000
# 8 vertices

vn 0.000000 0.000000 1.000000
vn 1.000000 0.000000 0.000000
vn 0.000000 0.000000 -1.000000
vn -1.000000 0.000000 0.000000
vn 0.000000 1.000000 0.000000
vn 0.000000 -1.000000 0.000000
# 6 normals

vt 0.454894 0.951734 0.000000
vt 0.483167 0.951734 0.000000
vt 0.483167 0.257061 0.000000
vt 0.454894 0.257061 0.000000
vt 0.498712 0.132360 0.000000
vt 0.498712 0.167094 0.000000
vt 0.922802 0.167094 0.000000
vt 0.922802 0.132360 0.000000
vt 0.993061 0.259426 0.000000
vt 0.964788 0.259426 0.000000
vt 0.964788 0.954099 0.000000
vt 0.993061 0.954099 0.000000
vt 0.500018 0.069732 0.000000
vt 0.500018 0.104465 0.000000
vt 0.926515 0.103411 0.000000
vt 0.926515 0.068678 0.000000
vt 0.508548 0.954484 0.000000
vt 0.932638 0.954484 0.000000
vt 0.932638 0.259812 0.000000
vt 0.508548 0.259812 0.000000
vt 0.010054 0.952735 0.000000
vt 0.434144 0.952735 0.000000
vt 0.434144 0.258062 0.000000
vt 0.010054 0.258062 0.000000
# 24 texture coordinates

o Cube
usemtl Mat
f 3/4/1 4/3/1 2/2/1 1/1/1
f 5/8/2 6/7/2 4/6/2 3/5/2
f 7/12/3 8/11/3 6/10/3 5/9/3
f 1/16/4 2/15/4 8/14/4 7/13/4
f 4/20/5 6/19/5 8/18/5 2/17/5
f 5/24/6 3/23/6 1/22/6 7/21/6

