# WaveFront *.obj file (generated by Cinema 4D)

mtllib ./Desk_-_Optimized_-_Drawers_Work.mtl

v -99.251782 52.495958 -62.541054
v -99.251782 52.495958 -64.866876
v -99.251782 49.579510 -62.541054
v -99.251782 49.579510 -64.866876
v -116.750439 43.746627 -28.381716
v -116.750439 58.328842 -28.381716
v -115.583857 58.328842 -30.090004
v -88.752597 58.328842 -30.090004
v -115.583857 58.328842 -61.374475
v -88.752597 58.328842 -61.374475
v -105.084672 52.495958 -62.541054
v -105.084672 52.495958 -64.866876
v -105.084672 49.579510 -62.541054
v -105.084672 49.579510 -64.866876
v -87.586014 58.328842 -62.541054
v -87.586014 43.746627 -62.541054
v -88.752597 46.036562 -61.374475
v -115.583857 46.036562 -61.374475
v -88.752597 46.036562 -30.090004
v -115.583857 46.036562 -30.090004
v -87.586014 43.746627 -28.381716
v -87.586014 58.328842 -28.381716
v -116.750439 43.746627 -62.541054
v -116.750439 58.328842 -62.541054
# 24 vertices

vn 0.000000 1.000000 0.000000
vn -1.000000 0.000000 0.000000
vn 0.000000 0.000000 -1.000000
vn 0.000000 -1.000000 0.000000
vn 0.000000 0.000000 1.000000
vn 1.000000 0.000000 0.000000
# 6 normals

vt 0.279297 0.500000 0.000000
vt 0.279297 0.500000 0.000000
vt 0.990234 0.500000 0.000000
# 3 texture coordinates

o Right_Drawer
usemtl default
f 10/2/1 15/1/1 24/1/1 9/1/1
f 23/1/2 5/1/2 6/1/2 24/1/2
f 11/3/2 12/3/2 14/3/2 13/3/2
f 14/3/3 12/3/3 2/3/3 4/3/3
f 4/3/4 3/3/4 13/3/4 14/3/4
f 8/2/1 22/1/1 15/1/1 10/2/1
f 21/1/5 22/1/5 6/1/5 5/1/5
f 1/3/3 11/3/3 24/1/3 15/1/3
f 23/1/3 24/1/3 11/3/3 13/3/3
f 15/1/3 16/1/3 3/3/3 1/3/3
f 18/1/1 20/2/1 19/2/1 17/2/1
f 15/1/6 22/1/6 21/1/6 16/1/6
f 7/2/1 6/1/1 22/1/1 8/2/1
f 2/3/6 1/3/6 3/3/6 4/3/6
f 9/1/1 24/1/1 6/1/1 7/2/1
f 16/1/3 23/1/3 13/3/3 3/3/3
f 17/2/5 10/2/5 9/1/5 18/1/5
f 16/1/4 21/1/4 5/1/4 23/1/4
f 19/2/2 8/2/2 10/2/2 17/2/2
f 20/2/3 7/2/3 8/2/3 19/2/3
f 18/1/6 9/1/6 7/2/6 20/2/6
f 11/3/1 1/3/1 2/3/1 12/3/1

v -17.498421 49.579513 -64.866876
v -17.498421 49.579513 -62.541054
v -17.498421 52.495955 -64.866876
v -17.498421 52.495955 -62.541054
v -34.997073 43.746629 -28.381716
v -34.997073 58.328839 -28.381716
v -6.999230 46.036559 -61.374475
v -33.830496 46.036559 -61.374475
v -6.999230 46.036559 -30.090004
v -33.830496 46.036559 -30.090004
v -5.832654 43.746629 -28.381716
v -5.832654 58.328839 -28.381716
v -23.331305 49.579513 -64.866876
v -23.331305 49.579513 -62.541054
v -23.331305 52.495955 -64.866876
v -23.331305 52.495955 -62.541054
v -6.999230 58.328839 -61.374475
v -33.830496 58.328839 -61.374475
v -6.999230 58.328839 -30.090004
v -33.830496 58.328839 -30.090004
v -34.997073 43.746629 -62.541054
v -34.997073 58.328839 -62.541054
v -5.832654 43.746629 -62.541054
v -5.832654 58.328839 -62.541054
# 24 vertices

# 0 normal

# 0 texture coordinate

o Left_Drawer
usemtl default
f 31/2/5 41/2/5 42/1/5 32/1/5
f 32/1/6 42/1/6 44/2/6 34/2/6
f 34/2/3 44/2/3 43/2/3 33/2/3
f 33/2/2 43/2/2 41/2/2 31/2/2
f 41/2/1 48/1/1 46/1/1 42/1/1
f 42/1/1 46/1/1 30/1/1 44/2/1
f 27/3/6 28/3/6 26/3/6 25/3/6
f 37/3/3 39/3/3 27/3/3 25/3/3
f 44/2/1 30/1/1 36/1/1 43/2/1
f 43/2/1 36/1/1 48/1/1 41/2/1
f 35/1/5 36/1/5 30/1/5 29/1/5
f 40/3/1 28/3/1 27/3/1 39/3/1
f 48/1/6 36/1/6 35/1/6 47/1/6
f 47/1/3 45/1/3 38/3/3 26/3/3
f 48/1/3 47/1/3 26/3/3 28/3/3
f 47/1/4 35/1/4 29/1/4 45/1/4
f 32/1/1 34/2/1 33/2/1 31/2/1
f 45/1/3 46/1/3 40/3/3 38/3/3
f 28/3/3 40/3/3 46/1/3 48/1/3
f 45/1/2 29/1/2 30/1/2 46/1/2
f 25/3/4 26/3/4 38/3/4 37/3/4
f 40/3/2 39/3/2 37/3/2 38/3/2

v -46.662841 49.579513 -64.866876
v -46.662841 49.579513 -62.541054
v -46.662841 52.495955 -64.866876
v -46.662841 52.495955 -62.541054
v -72.910819 49.579513 -64.866876
v -72.910819 49.579513 -62.541054
v -72.910819 52.495955 -64.866876
v -72.910819 52.495955 -62.541054
v -52.495725 49.579513 -64.866876
v -52.495725 49.579513 -62.541054
v -52.495725 52.495955 -64.866876
v -52.495725 52.495955 -62.541054
v -78.743703 49.579513 -64.866876
v -78.743703 49.579513 -62.541054
v -78.743703 52.495955 -64.866876
v -78.743703 52.495955 -62.541054
v -37.913515 58.328839 -28.381716
v -37.913515 43.746629 -28.381716
v -84.576587 43.746629 -28.381716
v -84.576587 58.328839 -28.381716
v -37.913515 58.328839 -62.541054
v -37.913515 43.746629 -62.541054
v -84.576587 43.746629 -62.541054
v -84.576587 58.328839 -62.541054
v -40.163515 58.328839 -30.090004
v -82.326587 58.328839 -30.090004
v -40.163515 58.328839 -61.374475
v -82.326587 58.328839 -61.374475
v -40.163515 44.768839 -30.090004
v -82.326587 44.768839 -30.090004
v -40.163515 44.768839 -61.374475
v -82.326587 44.768839 -61.374475
# 32 vertices

# 0 normal

# 0 texture coordinate

o Middle_Drawer
usemtl default
f 56/3/1 55/3/1 63/3/1 64/3/1
f 51/3/6 52/3/6 50/3/6 49/3/6
f 55/3/6 56/3/6 54/3/6 53/3/6
f 60/3/1 52/3/1 51/3/1 59/3/1
f 61/3/3 63/3/3 55/3/3 53/3/3
f 57/3/3 59/3/3 51/3/3 49/3/3
f 53/3/4 54/3/4 62/3/4 61/3/4
f 49/3/4 50/3/4 58/3/4 57/3/4
f 60/3/2 59/3/2 57/3/2 58/3/2
f 64/3/2 63/3/2 61/3/2 62/3/2
f 79/1/5 75/1/5 76/1/5 80/1/5
f 69/1/6 65/1/6 66/1/6 70/1/6
f 80/1/1 78/1/1 77/1/1 79/1/1
f 71/1/2 67/1/2 68/1/2 72/1/2
f 70/1/4 66/1/4 67/1/4 71/1/4
f 66/1/5 65/1/5 68/1/5 67/1/5
f 73/1/1 65/1/1 69/1/1 75/1/1
f 74/1/1 68/1/1 65/1/1 73/1/1
f 76/1/1 72/1/1 68/1/1 74/1/1
f 75/1/1 69/1/1 72/1/1 76/1/1
f 77/1/2 73/1/2 75/1/2 79/1/2
f 78/1/3 74/1/3 73/1/3 77/1/3
f 80/1/6 76/1/6 74/1/6 78/1/6
f 54/3/3 56/3/3 60/3/3 58/3/3
f 50/3/3 52/3/3 69/1/3 70/1/3
f 64/3/3 62/3/3 71/1/3 72/1/3
f 56/3/3 64/3/3 72/1/3
f 71/1/3 62/3/3 54/3/3
f 70/1/3 58/3/3 50/3/3
f 69/1/3 52/3/3 60/3/3
f 60/3/3 56/3/3 72/1/3 69/1/3
f 54/3/3 58/3/3 70/1/3 71/1/3

v 2.916672 58.328839 -67.078165
v 2.916672 58.328839 2.916442
v 2.916672 61.245281 -67.078165
v 2.916672 61.245281 2.916442
v 0.000230 0.000000 -64.161723
v 0.000230 0.000000 -58.328839
v 0.000230 0.000000 -5.832884
v 0.000230 0.000000 0.000000
v 0.000230 40.830188 -58.328839
v -0.187043 40.258810 -6.672896
v 0.000230 58.328839 -64.161723
v 0.000230 58.328839 0.000000
v -2.916212 5.832884 -58.328839
v -2.916212 5.832884 -5.832884
v -2.916212 11.665768 -58.328839
v -2.916212 11.665768 -5.832884
v -2.916212 17.498652 -58.328839
v -2.916212 17.498652 -5.832884
v -2.916212 23.331536 -58.328839
v -2.916212 23.331536 -5.832884
v -2.916212 29.164420 -58.328839
v -2.916212 29.164420 -5.832884
v -2.916212 34.997304 -58.328839
v -2.916212 34.997304 -5.832884
v -37.862859 61.245281 -67.110509
v -37.913515 58.328839 -64.161723
v -37.832357 58.357637 2.707851
v -37.862859 61.245281 2.884098
v -34.997073 43.746629 -64.161723
v -37.767966 58.347873 -0.201692
v -34.997073 58.328839 -64.161723
v -38.234562 40.830188 -5.853837
v -38.259607 40.821617 -0.030495
v -38.234562 40.830188 -58.349792
v -37.915448 40.830188 -64.161723
v -84.667600 40.830188 -5.832884
v -84.403066 58.394070 2.476733
v -84.523678 40.830188 0.000000
v -84.619817 40.830188 -64.161723
v -84.667600 40.830188 -58.328839
v -84.576587 43.746629 -64.161723
v -84.523678 58.394070 -0.439709
v -84.576587 58.328839 -64.161723
v -84.375432 61.245281 2.916442
v -84.825761 61.245281 -67.078165
v -84.864342 58.328839 -67.078165
v -84.576587 58.328839 -59.939355
v -84.576587 43.746629 -59.939355
v -116.657448 0.000000 -64.161723
v -116.657448 0.000000 -58.328839
v -116.657448 0.000000 -5.832884
v -116.657448 0.000000 0.000000
v -116.657448 5.832884 -58.328839
v -116.657448 5.832884 -5.832884
v -116.657448 11.665768 -58.328839
v -116.657448 11.665768 -5.832884
v -116.657448 17.498652 -58.328839
v -116.657448 17.498652 -5.832884
v -116.657448 23.331536 -58.328839
v -116.657448 23.331536 -5.832884
v -116.657448 29.164420 -58.328839
v -116.657448 29.164420 -5.832884
v -116.657448 34.997304 -58.328839
v -116.657448 34.997304 -5.832884
v -116.657448 40.830188 -64.161723
v -116.657448 40.830188 -58.328839
v -116.657448 40.830188 -5.832884
v -116.657448 40.830188 0.000000
v -116.657448 43.746629 -64.161723
v -116.657448 43.746629 -61.245281
v -116.657448 58.328839 -64.161723
v -116.657448 58.328839 -61.245281
v -5.832654 0.000000 -64.161723
v -5.832654 0.000000 -58.328839
v -5.832654 0.000000 -5.832884
v -5.832654 0.000000 0.000000
v -5.832654 5.832884 -58.328839
v -5.832654 5.832884 -5.832884
v -5.832654 11.665768 -58.328839
v -5.832654 11.665768 -5.832884
v -5.832654 17.498652 -58.328839
v -5.832654 17.498652 -5.832884
v -5.832654 23.331536 -58.328839
v -5.832654 23.331536 -5.832884
v -5.832654 29.164420 -58.328839
v -5.832654 29.164420 -5.832884
v -5.832654 34.997304 -58.328839
v -5.832654 34.997304 -5.832884
v -5.832654 40.830188 -64.161723
v -5.832654 40.830188 -58.328839
v -5.832654 40.830188 -5.832884
v -5.832654 40.830188 0.000000
v -5.832654 43.746629 -64.161723
v -37.913515 43.746629 -59.939355
v -5.832654 58.328839 -64.161723
v -37.913515 58.328839 -59.939355
v -5.832654 43.746629 -61.245281
v -5.832654 58.328839 -61.245281
v -34.997073 58.328839 -61.245281
v -34.997073 43.746629 -61.245281
v -37.913515 43.746629 -64.161723
v -125.406774 61.245281 2.916442
v -37.881038 58.328839 -67.078165
v -125.406774 61.245281 -67.078165
v -125.406774 58.328839 2.916442
v -125.406774 58.328839 -67.078165
v -122.490332 58.328839 0.000000
v -122.490332 58.328839 -64.161723
v -122.490332 40.830188 -5.832884
v -122.490332 40.830188 -58.328839
v -122.490332 0.000000 0.000000
v -122.490332 0.000000 -5.832884
v -87.493029 43.746629 -64.161723
v -87.493029 43.746629 -61.245281
v -87.493029 58.328839 -64.161723
v -87.493029 58.328839 -61.245281
v -122.490332 0.000000 -58.328839
v -122.490332 0.000000 -64.161723
v -119.573890 34.997304 -5.832884
v -119.573890 34.997304 -58.328839
v -119.573890 5.832884 -58.328839
v -119.573890 5.832884 -5.832884
v -119.573890 11.665768 -58.328839
v -119.573890 11.665768 -5.832884
v -119.573890 17.498652 -58.328839
v -119.573890 17.498652 -5.832884
v -119.573890 23.331536 -58.328839
v -119.573890 23.331536 -5.832884
v -119.573890 29.164420 -58.328839
v -119.573890 29.164420 -5.832884
# 130 vertices

vn 0.000010 -1.000000 -0.000367
vn 0.000020 -1.000000 -0.000735
vn 0.000133 -1.000000 -0.000735
vn -0.017044 -0.999852 -0.002144
vn -0.000023 -1.000000 -0.000183
vn -0.000046 -1.000000 -0.000367
vn 0.000026 -0.005545 -0.999985
vn -0.000172 -0.002772 -0.999996
vn 0.000397 -0.005546 -0.999985
vn -0.000755 -0.999998 0.001855
vn 0.000384 -0.999999 0.001226
vn -0.017088 -0.999852 -0.001899
vn 0.005436 -0.076480 0.997056
vn 0.001639 -0.091657 0.995789
vn 0.999960 -0.001952 -0.008743
vn 0.999995 -0.002914 0.000874
vn 0.999813 0.001923 -0.019233
vn -0.002670 0.011252 0.999933
vn 0.001793 0.015916 0.999872
vn -0.001569 0.002558 0.999996
vn -0.002957 -0.030479 0.999531
vn -0.002560 -0.068696 0.997634
vn -0.073790 -0.010459 -0.997219
vn 0.002894 0.007222 0.999970
vn -0.000000 0.000000 1.000000
vn -0.000000 0.000000 1.000000
vn 0.000831 -1.000000 0.000384
vn -0.000308 -1.000000 0.001013
vn -0.051249 -0.998670 -0.005694
vn -1.000000 0.000000 -0.000000
# 30 normals

# 0 texture coordinate

o Desk
usemtl default
f 171/1/10 172/1/9 113/1/8 112/1/7
f 112/1/7 113/1/8 118/1/12 116/1/11
f 120/1/4 119/1/4 115/1/4 114/1/4
f 84/1/1 83/1/1 105/1/1 108/1/1
f 126/1/14 125/1/14 105/1/13 183/1/13
f 183/1/13 105/1/13 83/1/15 81/1/15
f 117/1/17 122/1/17 110/1/16 107/1/16
f 106/1/4 183/1/4 81/1/4 111/1/4
f 170/1/18 114/1/4 115/1/4 169/1/4
f 119/1/3 121/1/3 181/1/3 115/1/3
f 117/1/20 124/1/20 182/1/19 185/1/19
f 145/1/3 193/1/3 121/1/3 119/1/3
f 146/1/4 145/1/4 119/1/4 120/1/4
f 170/1/18 171/1/10 112/1/7 114/1/4
f 186/1/3 184/1/3 125/1/14 126/1/14
f 120/1/4 116/1/11 147/1/4 146/1/4
f 198/1/3 188/1/3 149/1/3 145/1/3
f 129/1/3 198/1/3 145/1/3
f 153/1/3 169/1/3 85/1/3
f 108/1/1 105/1/1 125/1/1 124/1/1
f 90/1/21 89/1/22 91/1/22 92/1/21
f 90/1/21 92/1/21 88/1/23 87/1/23
f 123/1/4 126/1/4 183/1/4 106/1/4
f 122/1/25 118/1/25 113/1/24 110/1/24
f 110/1/24 113/1/24 172/1/26 92/1/26
f 108/1/28 107/1/28 82/1/27 84/1/27
f 188/1/2 198/1/2 197/1/2 190/1/2
f 124/1/20 117/1/20 107/1/28 108/1/28
f 109/1/3 169/1/3 115/1/3 181/1/3
f 171/1/29 90/1/29 87/1/29 155/1/29
f 155/1/2 156/1/2 172/1/2 171/1/2
f 189/1/2 187/1/2 188/1/2 190/1/2
f 153/1/2 154/1/2 170/1/2 169/1/2
f 154/1/5 86/1/5 89/1/5 170/1/5
f 187/1/30 191/1/31 132/1/31 148/1/30
f 116/1/11 118/1/12 148/1/4 147/1/4
f 187/1/30 148/1/30 118/1/25 122/1/25
f 172/1/26 156/1/32 88/1/32 92/1/26
f 195/1/4 186/1/4 126/1/4 123/1/4
f 83/1/6 84/1/6 82/1/6 81/1/6
f 195/1/4 151/1/4 188/1/4 186/1/4
f 136/1/1 135/1/1 203/1/1 204/1/1
f 194/1/1 193/1/1 149/1/1 150/1/1
f 81/1/4 91/1/4 175/1/4 111/1/4
f 95/1/6 96/1/6 94/1/6 93/1/6
f 122/1/17 117/1/17 185/1/33 187/1/33
f 99/1/6 100/1/6 98/1/6 97/1/6
f 109/1/3 173/1/3 169/1/3
f 103/1/6 104/1/6 102/1/6 101/1/6
f 145/1/6 146/1/6 130/1/6 129/1/6
f 145/1/3 149/1/3 193/1/3
f 188/1/3 151/1/3 149/1/3
f 111/1/6 179/1/6 180/1/6 109/1/6
f 201/1/2 202/1/2 204/1/2 203/1/2
f 169/1/3 173/1/3 91/1/3 85/1/3
f 89/1/22 86/1/6 85/1/6 91/1/22
f 173/1/3 175/1/3 91/1/3
f 189/1/2 192/1/2 191/1/2 187/1/2
f 82/1/34 107/1/16 110/1/16 92/1/34
f 144/1/1 143/1/1 200/1/1 199/1/1
f 138/1/4 205/1/4 137/1/4
f 168/1/1 104/1/1 103/1/1 167/1/1
f 106/1/4 176/1/4 127/1/4 123/1/4
f 135/1/6 136/1/6 134/1/6 133/1/6
f 139/1/1 207/1/1 208/1/1 140/1/1
f 182/1/2 184/1/2 186/1/2 185/1/2
f 98/1/4 162/1/4 161/1/4 97/1/4
f 94/1/4 158/1/4 157/1/4 93/1/4
f 114/1/4 112/1/7 116/1/11 120/1/4
f 139/1/6 140/1/6 138/1/6 137/1/6
f 206/1/4 205/1/4 138/1/4
f 187/1/33 185/1/33 186/1/4 188/1/4
f 91/1/4 81/1/4 82/1/34 92/1/34
f 147/1/4 189/1/4 190/1/4 146/1/4
f 164/1/1 100/1/1 99/1/1 163/1/1
f 143/1/6 144/1/6 142/1/6 141/1/6
f 196/1/4 152/1/4 151/1/4 195/1/4
f 102/1/4 166/1/4 165/1/4 101/1/4
f 146/1/5 190/1/5 197/1/5 130/1/5
f 142/1/4 209/1/4 141/1/4
f 134/1/4 202/1/4 201/1/4 133/1/4
f 124/1/1 125/1/1 184/1/1 182/1/1
f 151/1/6 152/1/6 150/1/6 149/1/6
f 199/1/2 200/1/2 209/1/2 210/1/2
f 175/1/4 178/1/4 179/1/4 111/1/4
f 160/1/2 159/1/2 157/1/2 158/1/2
f 210/1/4 209/1/4 142/1/4
f 208/1/2 207/1/2 205/1/2 206/1/2
f 170/1/18 89/1/35 90/1/35 171/1/10
f 180/1/1 177/1/1 173/1/1 109/1/1
f 181/1/2 174/1/2 176/1/2 106/1/2
f 164/1/2 163/1/2 161/1/2 162/1/2
f 193/1/3 195/1/3 123/1/3 121/1/3
f 121/1/1 128/1/1 174/1/1 181/1/1
f 123/1/6 127/1/6 128/1/6 121/1/6
f 196/1/2 195/1/2 193/1/2 194/1/2
f 168/1/2 167/1/2 165/1/2 166/1/2
f 132/1/6 131/1/6 147/1/6 148/1/6
f 189/1/3 147/1/3 131/1/3 192/1/3
f 160/1/1 96/1/1 95/1/1 159/1/1
f 178/1/36 175/1/36 173/1/36 177/1/36
f 181/1/3 106/1/3 111/1/3 109/1/3

