# WaveFront *.obj file (generated by Cinema 4D)

mtllib ./Dollar_Final.mtl

v 0.80000001192093 0 -0.40000000596046
v 0.80000001192093 0.10000000149012 -0.40000000596046
v -0.80000001192093 0 -0.40000000596046
v -0.80000001192093 0.10000000149012 -0.40000000596046
v -0.80000001192093 0 0.40000000596046
v -0.80000001192093 0.10000000149012 0.40000000596046
v 0.80000001192093 0 0.40000000596046
v 0.80000001192093 0.10000000149012 0.40000000596046
# 8 vertices

vn 0 0 -1
vn 0 0 -1
vn 0 0 -1
vn 0 0 -1
vn -1 0 0
vn -1 0 0
vn -1 0 0
vn -1 0 0
vn 0 0 1
vn 0 0 1
vn 0 0 1
vn 0 0 1
vn 1 0 0
vn 1 0 0
vn 1 0 0
vn 1 0 0
vn 0 1 0
vn 0 1 0
vn 0 1 0
vn 0 1 0
vn 0 -1 0
vn 0 -1 0
vn 0 -1 0
vn 0 -1 0
# 24 normals

vt 0.30085527896881 0.34376728534698 0
vt 0.30085527896881 0.37102448940277 0
vt 0.69921094179153 0.37102437019348 0
vt 0.69921094179153 0.34376728534698 0
vt 0.72661697864532 0.60153514146805 0
vt 0.74998265504837 0.60153514146805 0
vt 0.74998265504837 0.40239977836609 0
vt 0.72661697864532 0.40239977836609 0
vt 0.30085405707359 0.34377634525299 0
vt 0.30085405707359 0.37103343009949 0
vt 0.69920980930328 0.37103343009949 0
vt 0.69920980930328 0.34377634525299 0
vt 0.72661250829697 0.60154402256012 0
vt 0.74997818470001 0.60154402256012 0
vt 0.74997818470001 0.40240883827209 0
vt 0.72661250829697 0.40240883827209 0
vt 0.30081132054329 0.4024064540863 0
vt 0.30081132054329 0.6015408039093 0
vt 0.69916892051697 0.6015408039093 0
vt 0.69916892051697 0.4024064540863 0
vt 0.30079996585846 0.4024178981781 0
vt 0.30079996585846 0.60155212879181 0
vt 0.69915753602982 0.60155212879181 0
vt 0.69915753602982 0.4024178981781 0
# 24 texture coordinates

g Cube
usemtl Mat
f 3/4/1 4/3/1 2/2/1 1/1/1
f 5/8/5 6/7/5 4/6/5 3/5/5
f 7/12/9 8/11/9 6/10/9 5/9/9
f 1/16/13 2/15/13 8/14/13 7/13/13
f 4/20/17 6/19/17 8/18/17 2/17/17
f 5/24/21 3/23/21 1/22/21 7/21/21

