# Blender 3.1.0
# www.blender.org
mtllib medium_cup_textured.mtl
o Medium
v 0.002439 0.000128 0.000000
v 0.047229 0.000128 0.000000
v 0.043819 0.000128 0.017140
v 0.052205 0.040947 0.000000
v 0.048417 0.040947 0.019045
v 0.055925 0.081766 0.000000
v 0.051854 0.081766 0.020468
v 0.059029 0.122585 0.000000
v 0.054721 0.122585 0.021656
v 0.061724 0.163404 0.000000
v 0.057211 0.163404 0.022687
v 0.043303 0.006306 0.000000
v 0.002439 0.006306 0.000000
v 0.040192 0.006306 0.015638
v 0.034110 0.000128 0.031671
v 0.037629 0.040947 0.035190
v 0.040259 0.081766 0.037820
v 0.042454 0.122585 0.040015
v 0.044360 0.163404 0.041921
v 0.031334 0.006306 0.028895
v 0.019579 0.000128 0.041380
v 0.021484 0.040947 0.045978
v 0.022907 0.081766 0.049415
v 0.024095 0.122585 0.052282
v 0.025126 0.163404 0.054772
v 0.018077 0.006306 0.037753
v 0.002439 0.000128 0.044789
v 0.002439 0.040947 0.049766
v 0.002439 0.081766 0.053486
v 0.002439 0.122585 0.056590
v 0.002439 0.163404 0.059285
v 0.002439 0.006306 0.040864
v -0.014701 0.000128 0.041380
v -0.016606 0.040947 0.045978
v -0.018029 0.081766 0.049415
v -0.019217 0.122585 0.052282
v -0.020248 0.163404 0.054772
v -0.013199 0.006306 0.037753
v -0.029232 0.000128 0.031671
v -0.032751 0.040947 0.035190
v -0.035381 0.081766 0.037820
v -0.037576 0.122585 0.040015
v -0.039482 0.163404 0.041921
v -0.026456 0.006306 0.028895
v -0.038941 0.000128 0.017140
v -0.043539 0.040947 0.019045
v -0.046975 0.081766 0.020468
v -0.049843 0.122585 0.021656
v -0.052333 0.163404 0.022687
v -0.035314 0.006306 0.015638
v -0.042350 0.000128 0.000000
v -0.047327 0.040947 0.000000
v -0.051047 0.081766 0.000000
v -0.054151 0.122585 0.000000
v -0.056846 0.163404 0.000000
v -0.038425 0.006306 0.000000
v -0.038941 0.000128 -0.017140
v -0.043539 0.040947 -0.019045
v -0.046975 0.081766 -0.020468
v -0.049843 0.122585 -0.021656
v -0.052333 0.163404 -0.022687
v -0.035314 0.006306 -0.015638
v -0.029232 0.000128 -0.031671
v -0.032751 0.040947 -0.035190
v -0.035381 0.081766 -0.037820
v -0.037576 0.122585 -0.040015
v -0.039482 0.163404 -0.041921
v -0.026456 0.006306 -0.028895
v -0.014701 0.000128 -0.041380
v -0.016606 0.040947 -0.045978
v -0.018029 0.081766 -0.049414
v -0.019217 0.122585 -0.052282
v -0.020248 0.163404 -0.054772
v -0.013199 0.006306 -0.037753
v 0.002439 0.000128 -0.044789
v 0.002439 0.040947 -0.049766
v 0.002439 0.081766 -0.053486
v 0.002439 0.122585 -0.056590
v 0.002439 0.163404 -0.059285
v 0.002439 0.006306 -0.040864
v 0.019579 0.000128 -0.041380
v 0.021484 0.040947 -0.045978
v 0.022907 0.081766 -0.049414
v 0.024095 0.122585 -0.052282
v 0.025126 0.163404 -0.054772
v 0.018077 0.006306 -0.037753
v 0.034110 0.000128 -0.031671
v 0.037629 0.040947 -0.035190
v 0.040259 0.081766 -0.037820
v 0.042454 0.122585 -0.040015
v 0.044360 0.163404 -0.041921
v 0.031334 0.006306 -0.028895
v 0.043819 0.000128 -0.017140
v 0.048417 0.040947 -0.019045
v 0.051854 0.081766 -0.020468
v 0.054721 0.122585 -0.021656
v 0.057211 0.163404 -0.022687
v 0.040192 0.006306 -0.015638
v 0.059352 0.163404 0.000000
v 0.055020 0.163404 0.021780
v 0.042683 0.163404 0.040244
v 0.024219 0.163404 0.052581
v 0.002439 0.163404 0.056913
v -0.019341 0.163404 0.052581
v -0.037805 0.163404 0.040244
v -0.050142 0.163404 0.021780
v -0.054474 0.163404 0.000000
v -0.050142 0.163404 -0.021780
v -0.037805 0.163404 -0.040244
v -0.019341 0.163404 -0.052581
v 0.002439 0.163404 -0.056913
v 0.024219 0.163404 -0.052581
v 0.042683 0.163404 -0.040244
v 0.055020 0.163404 -0.021780
vn -0.0000 -1.0000 -0.0000
vn 0.9926 -0.1210 -0.0000
vn 0.9944 -0.1057 -0.0000
vn 0.9187 -0.1057 0.3805
vn 0.9171 -0.1210 0.3799
vn 0.9965 -0.0832 -0.0000
vn 0.9207 -0.0832 0.3814
vn 0.9975 -0.0708 -0.0000
vn 0.9216 -0.0708 0.3817
vn 0.9978 -0.0659 -0.0000
vn 0.9219 -0.0659 0.3819
vn -0.0000 1.0000 -0.0000
vn 0.7031 -0.1057 0.7031
vn 0.7019 -0.1210 0.7019
vn 0.7047 -0.0832 0.7047
vn 0.7053 -0.0708 0.7053
vn 0.7056 -0.0659 0.7056
vn 0.3805 -0.1057 0.9187
vn 0.3799 -0.1210 0.9171
vn 0.3814 -0.0832 0.9207
vn 0.3817 -0.0708 0.9216
vn 0.3819 -0.0659 0.9219
vn -0.0000 -0.1057 0.9944
vn -0.0000 -0.1210 0.9926
vn -0.0000 -0.0832 0.9965
vn -0.0000 -0.0708 0.9975
vn -0.0000 -0.0659 0.9978
vn -0.3805 -0.1057 0.9187
vn -0.3799 -0.1210 0.9171
vn -0.3814 -0.0832 0.9207
vn -0.3817 -0.0708 0.9216
vn -0.3819 -0.0659 0.9219
vn -0.7031 -0.1057 0.7031
vn -0.7019 -0.1210 0.7019
vn -0.7047 -0.0832 0.7047
vn -0.7053 -0.0708 0.7053
vn -0.7056 -0.0659 0.7056
vn -0.9187 -0.1057 0.3805
vn -0.9171 -0.1210 0.3799
vn -0.9207 -0.0832 0.3814
vn -0.9216 -0.0708 0.3817
vn -0.9219 -0.0659 0.3819
vn -0.9944 -0.1057 -0.0000
vn -0.9926 -0.1210 -0.0000
vn -0.9965 -0.0832 -0.0000
vn -0.9975 -0.0708 -0.0000
vn -0.9978 -0.0659 -0.0000
vn -0.9187 -0.1057 -0.3805
vn -0.9171 -0.1210 -0.3799
vn -0.9207 -0.0832 -0.3814
vn -0.9216 -0.0708 -0.3817
vn -0.9219 -0.0659 -0.3819
vn -0.7031 -0.1057 -0.7031
vn -0.7019 -0.1210 -0.7019
vn -0.7047 -0.0832 -0.7047
vn -0.7053 -0.0708 -0.7053
vn -0.7056 -0.0659 -0.7056
vn -0.3805 -0.1057 -0.9187
vn -0.3799 -0.1210 -0.9171
vn -0.3814 -0.0832 -0.9207
vn -0.3817 -0.0708 -0.9216
vn -0.3819 -0.0659 -0.9219
vn -0.0000 -0.1057 -0.9944
vn -0.0000 -0.1210 -0.9926
vn -0.0000 -0.0832 -0.9965
vn -0.0000 -0.0708 -0.9975
vn -0.0000 -0.0659 -0.9978
vn 0.3805 -0.1057 -0.9187
vn 0.3799 -0.1210 -0.9171
vn 0.3814 -0.0832 -0.9207
vn 0.3817 -0.0708 -0.9216
vn 0.3819 -0.0659 -0.9219
vn 0.7031 -0.1057 -0.7031
vn 0.7019 -0.1210 -0.7019
vn 0.7047 -0.0832 -0.7047
vn 0.7053 -0.0708 -0.7053
vn 0.7056 -0.0659 -0.7056
vn 0.9187 -0.1057 -0.3805
vn 0.9171 -0.1210 -0.3799
vn 0.9207 -0.0832 -0.3814
vn 0.9216 -0.0708 -0.3817
vn 0.9219 -0.0659 -0.3819
vn -0.9191 0.1016 -0.3807
vn -0.9948 0.1016 -0.0000
vn -0.7034 0.1016 -0.7034
vn -0.3807 0.1016 -0.9191
vn -0.0000 0.1016 -0.9948
vn 0.3807 0.1016 -0.9191
vn 0.7034 0.1016 -0.7034
vn 0.9191 0.1016 -0.3807
vn 0.9948 0.1016 -0.0000
vn 0.9191 0.1016 0.3807
vn 0.7034 0.1016 0.7034
vn 0.3807 0.1016 0.9191
vn -0.0000 0.1016 0.9948
vn -0.3807 0.1016 0.9191
vn -0.7034 0.1016 0.7034
vn -0.9191 0.1016 0.3807
vt 0.137766 0.138412
vt 0.265256 0.138412
vt 0.597365 0.624615
vt 0.255551 0.089624
vt 0.644346 0.624615
vt 0.597365 0.705865
vt 0.649567 0.705865
vt 0.597365 0.787115
vt 0.653468 0.787115
vt 0.597365 0.868365
vt 0.656724 0.868365
vt 0.597365 0.949615
vt 0.659551 0.949615
vt 0.264842 0.138689
vt 0.152440 0.282721
vt 0.137651 0.138689
vt 0.255160 0.187363
vt 0.109576 0.282721
vt 0.684175 0.624615
vt 0.227915 0.048263
vt 0.740364 0.624615
vt 0.693821 0.705865
vt 0.730718 0.705865
vt 0.701030 0.787115
vt 0.723509 0.787115
vt 0.707047 0.868365
vt 0.717493 0.868365
vt 0.712270 0.949615
vt 0.227588 0.228626
vt 0.073238 0.282721
vt 0.452259 0.282721
vt 0.186554 0.020627
vt 0.780193 0.624615
vt 0.774973 0.705865
vt 0.771071 0.787115
vt 0.767815 0.868365
vt 0.764989 0.949615
vt 0.186325 0.256197
vt 0.415921 0.282721
vt 0.137766 0.010922
vt 0.827175 0.624615
vt 0.827175 0.705865
vt 0.827175 0.787115
vt 0.827175 0.868365
vt 0.827175 0.949615
vt 0.137651 0.265879
vt 0.373057 0.282721
vt 0.088978 0.020627
vt 0.874156 0.624615
vt 0.879376 0.705865
vt 0.883278 0.787115
vt 0.886534 0.868365
vt 0.889361 0.949615
vt 0.088978 0.256197
vt 0.330194 0.282721
vt 0.913985 0.624615
vt 0.047617 0.048263
vt 0.050935 0.624615
vt 0.923631 0.705865
vt 0.041289 0.705865
vt 0.930840 0.787115
vt 0.034080 0.787115
vt 0.936856 0.868365
vt 0.028064 0.868365
vt 0.942079 0.949615
vt 0.022841 0.949615
vt 0.047714 0.228626
vt 0.293856 0.282721
vt 0.672876 0.282721
vt 0.019980 0.089624
vt 0.090764 0.624615
vt 0.085544 0.705865
vt 0.081642 0.787115
vt 0.078386 0.868365
vt 0.075559 0.949615
vt 0.020143 0.187363
vt 0.636538 0.282721
vt 0.010276 0.138412
vt 0.137746 0.624615
vt 0.137746 0.705865
vt 0.137746 0.787115
vt 0.137746 0.868365
vt 0.137746 0.949615
vt 0.010461 0.138689
vt 0.593674 0.282721
vt 0.019980 0.187200
vt 0.184727 0.624615
vt 0.189947 0.705865
vt 0.193849 0.787115
vt 0.197105 0.868365
vt 0.199932 0.949615
vt 0.020143 0.090015
vt 0.550811 0.282721
vt 0.224556 0.624615
vt 0.047617 0.228561
vt 0.280745 0.624615
vt 0.234202 0.705865
vt 0.271099 0.705865
vt 0.241411 0.787115
vt 0.263890 0.787115
vt 0.247427 0.868365
vt 0.257874 0.868365
vt 0.252650 0.949615
vt 0.047714 0.048752
vt 0.514473 0.282721
vt 0.893493 0.282721
vt 0.088978 0.256197
vt 0.320574 0.624615
vt 0.315353 0.705865
vt 0.311452 0.787115
vt 0.308196 0.868365
vt 0.305369 0.949615
vt 0.088978 0.021180
vt 0.857155 0.282721
vt 0.137766 0.265902
vt 0.367555 0.624615
vt 0.367555 0.705865
vt 0.367555 0.787115
vt 0.367555 0.868365
vt 0.367555 0.949615
vt 0.137651 0.011498
vt 0.814292 0.282721
vt 0.186554 0.256197
vt 0.414537 0.624615
vt 0.419757 0.705865
vt 0.423659 0.787115
vt 0.426914 0.868365
vt 0.429741 0.949615
vt 0.186325 0.021180
vt 0.771428 0.282721
vt 0.454365 0.624615
vt 0.227915 0.228561
vt 0.510555 0.624615
vt 0.464012 0.705865
vt 0.500909 0.705865
vt 0.471221 0.787115
vt 0.493699 0.787115
vt 0.477237 0.868365
vt 0.487683 0.868365
vt 0.482460 0.949615
vt 0.227588 0.048752
vt 0.735090 0.282721
vt 0.231641 0.282721
vt 0.255551 0.187200
vt 0.550384 0.624615
vt 0.545163 0.705865
vt 0.541261 0.787115
vt 0.538006 0.868365
vt 0.535179 0.949615
vt 0.255160 0.090015
vt 0.195303 0.282721
vt 0.598494 0.956017
vt 0.596236 0.956017
vt 0.152440 0.595423
vt 0.658144 0.955961
vt 0.660958 0.955961
vt 0.092741 0.595423
vt 0.711141 0.956017
vt 0.713398 0.956017
vt 0.042131 0.595423
vt 0.483366 0.595423
vt 0.763582 0.955961
vt 0.766395 0.955961
vt 0.432756 0.595423
vt 0.826046 0.956017
vt 0.828303 0.956016
vt 0.373057 0.595423
vt 0.887954 0.955961
vt 0.890767 0.955961
vt 0.313359 0.595423
vt 0.940951 0.956017
vt 0.023969 0.956017
vt 0.262748 0.595423
vt 0.703983 0.595423
vt 0.074153 0.955961
vt 0.076966 0.955961
vt 0.653373 0.595423
vt 0.136617 0.956017
vt 0.138874 0.956017
vt 0.593674 0.595423
vt 0.198525 0.955961
vt 0.201338 0.955961
vt 0.533976 0.595423
vt 0.251522 0.956017
vt 0.254333 0.955894
vt 0.483366 0.595423
vt 0.924600 0.595423
vt 0.304521 0.956060
vt 0.307857 0.955621
vt 0.873990 0.595423
vt 0.365801 0.955677
vt 0.369514 0.955528
vt 0.814292 0.595423
vt 0.427254 0.955621
vt 0.431148 0.955961
vt 0.754593 0.595423
vt 0.481331 0.956016
vt 0.483027 0.956091
vt 0.703983 0.595423
vt 0.262748 0.595423
vt 0.533224 0.955815
vt 0.536586 0.955961
vt 0.212138 0.595423
s 1
usemtl medium_cup
f 1/1/1 2/2/1 3/4/1
f 2/3/2 4/6/3 5/7/4 3/5/5
f 4/6/3 6/8/6 7/9/7 5/7/4
f 6/8/6 8/10/8 9/11/9 7/9/7
f 8/10/8 10/12/10 11/13/11 9/11/9
f 12/14/12 13/16/12 14/17/12
f 1/1/1 3/4/1 15/20/1
f 3/5/5 5/7/4 16/22/13 15/19/14
f 5/7/4 7/9/7 17/24/15 16/22/13
f 7/9/7 9/11/9 18/26/16 17/24/15
f 9/11/9 11/13/11 19/28/17 18/26/16
f 14/17/12 13/16/12 20/29/12
f 1/1/1 15/20/1 21/32/1
f 15/21/14 16/23/13 22/34/18 21/33/19
f 16/23/13 17/25/15 23/35/20 22/34/18
f 17/25/15 18/27/16 24/36/21 23/35/20
f 18/27/16 19/28/17 25/37/22 24/36/21
f 20/29/12 13/16/12 26/38/12
f 1/1/1 21/32/1 27/40/1
f 21/33/19 22/34/18 28/42/23 27/41/24
f 22/34/18 23/35/20 29/43/25 28/42/23
f 23/35/20 24/36/21 30/44/26 29/43/25
f 24/36/21 25/37/22 31/45/27 30/44/26
f 26/38/12 13/16/12 32/46/12
f 1/1/1 27/40/1 33/48/1
f 27/41/24 28/42/23 34/50/28 33/49/29
f 28/42/23 29/43/25 35/51/30 34/50/28
f 29/43/25 30/44/26 36/52/31 35/51/30
f 30/44/26 31/45/27 37/53/32 36/52/31
f 32/46/12 13/16/12 38/54/12
f 1/1/1 33/48/1 39/57/1
f 33/49/29 34/50/28 40/59/33 39/56/34
f 34/50/28 35/51/30 41/61/35 40/59/33
f 35/51/30 36/52/31 42/63/36 41/61/35
f 36/52/31 37/53/32 43/65/37 42/63/36
f 38/54/12 13/16/12 44/67/12
f 1/1/1 39/57/1 45/70/1
f 39/58/34 40/60/33 46/72/38 45/71/39
f 40/60/33 41/62/35 47/73/40 46/72/38
f 41/62/35 42/64/36 48/74/41 47/73/40
f 42/64/36 43/66/37 49/75/42 48/74/41
f 44/67/12 13/16/12 50/76/12
f 1/1/1 45/70/1 51/78/1
f 45/71/39 46/72/38 52/80/43 51/79/44
f 46/72/38 47/73/40 53/81/45 52/80/43
f 47/73/40 48/74/41 54/82/46 53/81/45
f 48/74/41 49/75/42 55/83/47 54/82/46
f 50/76/12 13/16/12 56/84/12
f 1/1/1 51/78/1 57/86/1
f 51/79/44 52/80/43 58/88/48 57/87/49
f 52/80/43 53/81/45 59/89/50 58/88/48
f 53/81/45 54/82/46 60/90/51 59/89/50
f 54/82/46 55/83/47 61/91/52 60/90/51
f 56/84/12 13/16/12 62/92/12
f 1/1/1 57/86/1 63/95/1
f 57/87/49 58/88/48 64/97/53 63/94/54
f 58/88/48 59/89/50 65/99/55 64/97/53
f 59/89/50 60/90/51 66/101/56 65/99/55
f 60/90/51 61/91/52 67/103/57 66/101/56
f 62/92/12 13/16/12 68/104/12
f 1/1/1 63/95/1 69/107/1
f 63/96/54 64/98/53 70/109/58 69/108/59
f 64/98/53 65/100/55 71/110/60 70/109/58
f 65/100/55 66/102/56 72/111/61 71/110/60
f 66/102/56 67/103/57 73/112/62 72/111/61
f 68/104/12 13/16/12 74/113/12
f 1/1/1 69/107/1 75/115/1
f 69/108/59 70/109/58 76/117/63 75/116/64
f 70/109/58 71/110/60 77/118/65 76/117/63
f 71/110/60 72/111/61 78/119/66 77/118/65
f 72/111/61 73/112/62 79/120/67 78/119/66
f 74/113/12 13/16/12 80/121/12
f 1/1/1 75/115/1 81/123/1
f 75/116/64 76/117/63 82/125/68 81/124/69
f 76/117/63 77/118/65 83/126/70 82/125/68
f 77/118/65 78/119/66 84/127/71 83/126/70
f 78/119/66 79/120/67 85/128/72 84/127/71
f 80/121/12 13/16/12 86/129/12
f 1/1/1 81/123/1 87/132/1
f 81/124/69 82/125/68 88/134/73 87/131/74
f 82/125/68 83/126/70 89/136/75 88/134/73
f 83/126/70 84/127/71 90/138/76 89/136/75
f 84/127/71 85/128/72 91/140/77 90/138/76
f 86/129/12 13/16/12 92/141/12
f 1/1/1 87/132/1 93/144/1
f 87/133/74 88/135/73 94/146/78 93/145/79
f 88/135/73 89/137/75 95/147/80 94/146/78
f 89/137/75 90/139/76 96/148/81 95/147/80
f 90/139/76 91/140/77 97/149/82 96/148/81
f 92/141/12 13/16/12 98/150/12
f 1/1/1 93/144/1 2/2/1
f 93/145/79 94/146/78 4/6/3 2/3/2
f 94/146/78 95/147/80 6/8/6 4/6/3
f 95/147/80 96/148/81 8/10/8 6/8/6
f 96/148/81 97/149/82 10/12/10 8/10/8
f 98/150/12 13/16/12 12/14/12
f 10/12/12 99/152/12 100/155/12 11/13/12
f 11/13/12 100/156/12 101/158/12 19/28/12
f 19/28/12 101/159/12 102/162/12 25/37/12
f 25/37/12 102/163/12 103/165/12 31/45/12
f 31/45/12 103/166/12 104/168/12 37/53/12
f 37/53/12 104/169/12 105/171/12 43/65/12
f 43/66/12 105/172/12 106/175/12 49/75/12
f 49/75/12 106/176/12 107/178/12 55/83/12
f 55/83/12 107/179/12 108/181/12 61/91/12
f 61/91/12 108/182/12 109/184/12 67/103/12
f 67/103/12 109/185/12 110/188/12 73/112/12
f 73/112/12 110/189/12 111/191/12 79/120/12
f 79/120/12 111/192/12 112/194/12 85/128/12
f 85/128/12 112/195/12 113/197/12 91/140/12
f 91/140/12 113/198/12 114/201/12 97/149/12
f 97/149/12 114/202/12 99/153/12 10/12/12
f 14/18/83 100/157/83 99/154/84 12/15/84
f 20/30/85 101/160/85 100/157/83 14/18/83
f 26/39/86 102/164/86 101/161/85 20/31/85
f 32/47/87 103/167/87 102/164/86 26/39/86
f 38/55/88 104/170/88 103/167/87 32/47/87
f 44/68/89 105/173/89 104/170/88 38/55/88
f 50/77/90 106/177/90 105/174/89 44/69/89
f 56/85/91 107/180/91 106/177/90 50/77/90
f 62/93/92 108/183/92 107/180/91 56/85/91
f 68/105/93 109/186/93 108/183/92 62/93/92
f 74/114/94 110/190/94 109/187/93 68/106/93
f 80/122/95 111/193/95 110/190/94 74/114/94
f 86/130/96 112/196/96 111/193/95 80/122/95
f 92/142/97 113/199/97 112/196/96 86/130/96
f 98/151/98 114/203/98 113/200/97 92/143/97
f 12/15/84 99/154/84 114/203/98 98/151/98
