# WaveFront *.obj file (generated by Cinema 4D)

mtllib ./small_cup_simple_textured.mtl

v -0.000232 0.000557 0.000000
v 0.044558 0.000557 0.000000
v 0.041149 0.000557 0.017140
v 0.049535 0.027459 0.000000
v 0.045747 0.027459 0.019045
v 0.052350 0.108166 -0.021780
v 0.040012 0.108166 -0.040244
v 0.056358 0.081263 0.000000
v 0.052051 0.081263 0.021656
v 0.059053 0.108166 0.000000
v 0.054540 0.108166 0.022687
v 0.040632 0.004629 0.000000
v -0.000232 0.004629 0.000000
v 0.037522 0.004629 0.015638
v 0.031439 0.000557 0.031671
v 0.034959 0.027459 0.035190
v 0.021548 0.108166 -0.052581
v 0.039784 0.081263 0.040015
v 0.041689 0.108166 0.041921
v 0.028663 0.004629 0.028895
v 0.016909 0.000557 0.041380
v 0.018813 0.027459 0.045978
v -0.000232 0.108166 -0.056913
v 0.021424 0.081263 0.052282
v 0.022456 0.108166 0.054772
v 0.015406 0.004629 0.037753
v -0.000232 0.000557 0.044789
v -0.000232 0.027459 0.049766
v -0.022011 0.108166 -0.052581
v -0.000232 0.081263 0.056590
v -0.000232 0.108166 0.059285
v -0.000232 0.004629 0.040864
v -0.017372 0.000557 0.041380
v -0.019276 0.027459 0.045978
v -0.040475 0.108166 -0.040244
v -0.021888 0.081263 0.052282
v -0.022919 0.108166 0.054772
v -0.015869 0.004629 0.037753
v -0.031902 0.000557 0.031671
v -0.035422 0.027459 0.035190
v -0.052813 0.108166 -0.021780
v -0.040247 0.081263 0.040015
v -0.042152 0.108166 0.041921
v -0.029127 0.004629 0.028895
v -0.041612 0.000557 0.017140
v -0.046210 0.027459 0.019045
v -0.057145 0.108166 0.000000
v -0.052514 0.081263 0.021656
v -0.055003 0.108166 0.022687
v -0.037985 0.004629 0.015638
v -0.045021 0.000557 0.000000
v -0.049998 0.027459 0.000000
v -0.052813 0.108166 0.021780
v -0.056821 0.081263 0.000000
v -0.059516 0.108166 0.000000
v -0.041095 0.004629 0.000000
v -0.041612 0.000557 -0.017140
v -0.046210 0.027459 -0.019045
v -0.040475 0.108166 0.040244
v -0.052514 0.081263 -0.021656
v -0.055003 0.108166 -0.022687
v -0.037985 0.004629 -0.015638
v -0.031902 0.000557 -0.031671
v -0.035422 0.027459 -0.035190
v -0.022011 0.108166 0.052581
v -0.040247 0.081263 -0.040015
v -0.042152 0.108166 -0.041921
v -0.029127 0.004629 -0.028895
v -0.017372 0.000557 -0.041380
v -0.019276 0.027459 -0.045978
v -0.000232 0.108166 0.056913
v -0.021888 0.081263 -0.052282
v -0.022919 0.108166 -0.054772
v -0.015869 0.004629 -0.037753
v -0.000232 0.000557 -0.044789
v -0.000232 0.027459 -0.049766
v 0.021548 0.108166 0.052581
v -0.000232 0.081263 -0.056590
v -0.000232 0.108166 -0.059285
v -0.000232 0.004629 -0.040864
v 0.016909 0.000557 -0.041380
v 0.018813 0.027459 -0.045978
v 0.040012 0.108166 0.040244
v 0.021424 0.081263 -0.052282
v 0.022456 0.108166 -0.054772
v 0.015406 0.004629 -0.037753
v 0.031439 0.000557 -0.031671
v 0.034959 0.027459 -0.035190
v 0.052350 0.108166 0.021780
v 0.039784 0.081263 -0.040015
v 0.041689 0.108166 -0.041921
v 0.028663 0.004629 -0.028895
v 0.041149 0.000557 -0.017140
v 0.045747 0.027459 -0.019045
v 0.056682 0.108166 0.000000
v 0.052051 0.081263 -0.021656
v 0.054540 0.108166 -0.022687
v 0.037522 0.004629 -0.015638
# 98 vertices

vn 0.000000 -1.000000 0.000000
vn 0.965031 -0.178534 0.191939
vn 0.973290 -0.123428 0.193578
vn -0.969647 0.150310 0.192850
vn 0.976089 -0.097763 0.194147
vn 0.000000 1.000000 0.000000
vn 0.818097 -0.178544 0.546661
vn 0.825109 -0.123432 0.551325
vn -0.822002 0.150309 0.549291
vn 0.827496 -0.097756 0.552897
vn 0.546645 -0.178530 0.818112
vn 0.551303 -0.123432 0.825124
vn -0.549254 0.150310 0.822026
vn 0.552895 -0.097786 0.827493
vn 0.191934 -0.178530 0.965033
vn 0.193599 -0.123436 0.973285
vn -0.192879 0.150306 0.969642
vn 0.194165 -0.097784 0.976083
vn -0.191944 -0.178530 0.965031
vn -0.193604 -0.123439 0.973283
vn 0.192890 0.150305 0.969640
vn -0.194169 -0.097780 0.976083
vn -0.546645 -0.178529 0.818112
vn -0.551313 -0.123437 0.825117
vn 0.549240 0.150307 0.822036
vn -0.552906 -0.097776 0.827487
vn -0.818097 -0.178545 0.546661
vn -0.825109 -0.123432 0.551325
vn 0.822017 0.150305 0.549269
vn -0.827496 -0.097756 0.552897
vn -0.965031 -0.178533 0.191939
vn -0.973290 -0.123428 0.193578
vn 0.969647 0.150309 0.192850
vn -0.976089 -0.097762 0.194148
vn -0.965031 -0.178534 -0.191939
vn -0.973290 -0.123428 -0.193578
vn 0.969647 0.150310 -0.192850
vn -0.976089 -0.097763 -0.194147
vn -0.818097 -0.178544 -0.546661
vn -0.825109 -0.123432 -0.551325
vn 0.822017 0.150306 -0.549269
vn -0.827496 -0.097756 -0.552897
vn -0.546644 -0.178530 -0.818112
vn -0.551313 -0.123437 -0.825117
vn 0.549240 0.150306 -0.822036
vn -0.552906 -0.097776 -0.827487
vn -0.191944 -0.178530 -0.965031
vn -0.193604 -0.123438 -0.973283
vn 0.192890 0.150306 -0.969640
vn -0.194169 -0.097781 -0.976083
vn 0.191934 -0.178530 -0.965033
vn 0.193599 -0.123437 -0.973285
vn -0.192879 0.150305 -0.969642
vn 0.194165 -0.097784 -0.976083
vn 0.546645 -0.178529 -0.818112
vn 0.551303 -0.123432 -0.825124
vn -0.549254 0.150309 -0.822026
vn 0.552895 -0.097787 -0.827493
vn 0.818097 -0.178545 -0.546661
vn 0.825109 -0.123432 -0.551325
vn -0.822002 0.150310 -0.549290
vn 0.827496 -0.097757 -0.552897
vn 0.965031 -0.178533 -0.191939
vn 0.973290 -0.123428 -0.193577
vn -0.969647 0.150310 -0.192850
vn 0.976089 -0.097762 -0.194147
# 66 normals

vt 0.575139 0.377572 0.000000
vt 0.579072 0.397348 0.000000
vt 0.527396 0.397348 0.000000
vt 0.000000 1.000000 0.000000
vt 0.684407 0.555969 0.000000
vt 0.686118 0.580122 0.000000
vt 0.669018 0.580122 0.000000
vt 0.669018 0.555969 0.000000
vt 0.643618 0.842622 0.000000
vt 0.645962 0.890930 0.000000
vt 0.626518 0.890930 0.000000
vt 0.626518 0.842622 0.000000
vt 0.242567 0.485381 0.000000
vt 0.245955 0.542509 0.000000
vt 0.233938 0.542509 0.000000
vt 0.233938 0.485381 0.000000
vt 0.688462 0.628430 0.000000
vt 0.689388 0.652583 0.000000
vt 0.669018 0.652583 0.000000
vt 0.669018 0.628430 0.000000
vt 0.508851 0.107556 0.000000
vt 0.479265 0.095301 0.000000
vt 0.511289 0.095301 0.000000
vt 0.563937 0.360807 0.000000
vt 0.697453 0.555969 0.000000
vt 0.700613 0.580122 0.000000
vt 0.658113 0.842622 0.000000
vt 0.662445 0.890930 0.000000
vt 0.249881 0.485381 0.000000
vt 0.256143 0.542509 0.000000
vt 0.704945 0.628430 0.000000
vt 0.706656 0.652583 0.000000
vt 0.501909 0.117945 0.000000
vt 0.547172 0.349605 0.000000
vt 0.728905 0.555969 0.000000
vt 0.727195 0.580122 0.000000
vt 0.712699 0.580122 0.000000
vt 0.715859 0.555969 0.000000
vt 0.684695 0.842622 0.000000
vt 0.682350 0.890930 0.000000
vt 0.665867 0.890930 0.000000
vt 0.670199 0.842622 0.000000
vt 0.358819 0.485107 0.000000
vt 0.355414 0.542509 0.000000
vt 0.345177 0.542509 0.000000
vt 0.351469 0.485107 0.000000
vt 0.724850 0.628430 0.000000
vt 0.723924 0.652583 0.000000
vt 0.708367 0.628430 0.000000
vt 0.491520 0.124887 0.000000
vt 0.527396 0.345672 0.000000
vt 0.744294 0.555969 0.000000
vt 0.744293 0.580122 0.000000
vt 0.701793 0.842622 0.000000
vt 0.701793 0.890930 0.000000
vt 0.367489 0.485107 0.000000
vt 0.367489 0.542509 0.000000
vt 0.744293 0.628430 0.000000
vt 0.744293 0.652583 0.000000
vt 0.479265 0.127325 0.000000
vt 0.507621 0.349605 0.000000
vt 0.759683 0.555969 0.000000
vt 0.761393 0.580122 0.000000
vt 0.718893 0.842622 0.000000
vt 0.721237 0.890930 0.000000
vt 0.376159 0.485107 0.000000
vt 0.379564 0.542509 0.000000
vt 0.763737 0.628430 0.000000
vt 0.764663 0.652583 0.000000
vt 0.467010 0.124887 0.000000
vt 0.490856 0.360807 0.000000
vt 0.772729 0.555969 0.000000
vt 0.775888 0.580122 0.000000
vt 0.733388 0.842622 0.000000
vt 0.737720 0.890930 0.000000
vt 0.383508 0.485107 0.000000
vt 0.389800 0.542509 0.000000
vt 0.780220 0.628430 0.000000
vt 0.781931 0.652583 0.000000
vt 0.456620 0.117945 0.000000
vt 0.479654 0.377572 0.000000
vt 0.503690 0.556429 0.000000
vt 0.501988 0.580467 0.000000
vt 0.487561 0.580467 0.000000
vt 0.490706 0.556429 0.000000
vt 0.459488 0.842967 0.000000
vt 0.457155 0.891045 0.000000
vt 0.440750 0.891045 0.000000
vt 0.445061 0.842967 0.000000
vt 0.314196 0.485107 0.000000
vt 0.310790 0.542509 0.000000
vt 0.300554 0.542509 0.000000
vt 0.306846 0.485107 0.000000
vt 0.499655 0.628545 0.000000
vt 0.498733 0.652583 0.000000
vt 0.481547 0.652583 0.000000
vt 0.483250 0.628545 0.000000
vt 0.449678 0.107556 0.000000
vt 0.475720 0.397348 0.000000
vt 0.519006 0.556429 0.000000
vt 0.519006 0.580467 0.000000
vt 0.476506 0.842967 0.000000
vt 0.476506 0.891045 0.000000
vt 0.322865 0.485107 0.000000
vt 0.322865 0.542509 0.000000
vt 0.519006 0.628545 0.000000
vt 0.519006 0.652583 0.000000
vt 0.447241 0.095301 0.000000
vt 0.479654 0.417123 0.000000
vt 0.534321 0.556429 0.000000
vt 0.536023 0.580467 0.000000
vt 0.493523 0.842967 0.000000
vt 0.495857 0.891045 0.000000
vt 0.331535 0.485107 0.000000
vt 0.334940 0.542509 0.000000
vt 0.538357 0.628545 0.000000
vt 0.539278 0.652583 0.000000
vt 0.449678 0.083045 0.000000
vt 0.490856 0.433888 0.000000
vt 0.547305 0.556429 0.000000
vt 0.550450 0.580467 0.000000
vt 0.507950 0.842967 0.000000
vt 0.512261 0.891045 0.000000
vt 0.338885 0.485107 0.000000
vt 0.554761 0.628545 0.000000
vt 0.556464 0.652583 0.000000
vt 0.456620 0.072656 0.000000
vt 0.507621 0.445090 0.000000
vt 0.578607 0.556429 0.000000
vt 0.576905 0.580467 0.000000
vt 0.562478 0.580467 0.000000
vt 0.565623 0.556429 0.000000
vt 0.534405 0.842967 0.000000
vt 0.532072 0.891045 0.000000
vt 0.515667 0.891045 0.000000
vt 0.519978 0.842967 0.000000
vt 0.269720 0.485381 0.000000
vt 0.266331 0.542509 0.000000
vt 0.262405 0.485381 0.000000
vt 0.574572 0.628545 0.000000
vt 0.573650 0.652583 0.000000
vt 0.558167 0.628545 0.000000
vt 0.467010 0.065714 0.000000
vt 0.527396 0.449024 0.000000
vt 0.593923 0.556429 0.000000
vt 0.593923 0.580467 0.000000
vt 0.551423 0.842967 0.000000
vt 0.551423 0.891045 0.000000
vt 0.278348 0.485381 0.000000
vt 0.278348 0.542509 0.000000
vt 0.593923 0.628545 0.000000
vt 0.593923 0.652583 0.000000
vt 0.479265 0.063276 0.000000
vt 0.547172 0.445090 0.000000
vt 0.609238 0.556429 0.000000
vt 0.610940 0.580467 0.000000
vt 0.568440 0.842967 0.000000
vt 0.570773 0.891045 0.000000
vt 0.286977 0.485381 0.000000
vt 0.290366 0.542509 0.000000
vt 0.613273 0.628545 0.000000
vt 0.614195 0.652583 0.000000
vt 0.491520 0.065714 0.000000
vt 0.563937 0.433888 0.000000
vt 0.622222 0.556429 0.000000
vt 0.625367 0.580467 0.000000
vt 0.582867 0.842967 0.000000
vt 0.587178 0.891045 0.000000
vt 0.294292 0.485381 0.000000
vt 0.629678 0.628545 0.000000
vt 0.631381 0.652583 0.000000
vt 0.501909 0.072656 0.000000
vt 0.575139 0.417123 0.000000
vt 0.653629 0.555969 0.000000
vt 0.651919 0.580122 0.000000
vt 0.637424 0.580122 0.000000
vt 0.640583 0.555969 0.000000
vt 0.609419 0.842622 0.000000
vt 0.607075 0.890930 0.000000
vt 0.590592 0.890930 0.000000
vt 0.594924 0.842622 0.000000
vt 0.225309 0.485381 0.000000
vt 0.221920 0.542509 0.000000
vt 0.211733 0.542509 0.000000
vt 0.217994 0.485381 0.000000
vt 0.649575 0.628430 0.000000
vt 0.648649 0.652583 0.000000
vt 0.633092 0.628430 0.000000
vt 0.508851 0.083045 0.000000
vt 0.960279 0.059354 0.000000
vt 0.960253 0.059468 0.000000
vt 0.959179 0.059469 0.000000
vt 0.959159 0.059354 0.000000
vt 0.961229 0.059354 0.000000
vt 0.961208 0.059469 0.000000
vt 0.960304 0.059468 0.000000
vt 0.962178 0.059354 0.000000
vt 0.962153 0.059468 0.000000
vt 0.961249 0.059469 0.000000
vt 0.963299 0.059354 0.000000
vt 0.963278 0.059469 0.000000
vt 0.962204 0.059468 0.000000
vt 0.964419 0.059354 0.000000
vt 0.964394 0.059468 0.000000
vt 0.963319 0.059469 0.000000
vt 0.965369 0.059354 0.000000
vt 0.965348 0.059469 0.000000
vt 0.964444 0.059468 0.000000
vt 0.949793 0.059354 0.000000
vt 0.949768 0.059468 0.000000
vt 0.948868 0.059469 0.000000
vt 0.948848 0.059354 0.000000
vt 0.950908 0.059354 0.000000
vt 0.950881 0.059467 0.000000
vt 0.949812 0.059469 0.000000
vt 0.952023 0.059354 0.000000
vt 0.951998 0.059468 0.000000
vt 0.950928 0.059469 0.000000
vt 0.952968 0.059354 0.000000
vt 0.952948 0.059469 0.000000
vt 0.952048 0.059468 0.000000
vt 0.953913 0.059354 0.000000
vt 0.953888 0.059468 0.000000
vt 0.952988 0.059469 0.000000
vt 0.955028 0.059354 0.000000
vt 0.955008 0.059469 0.000000
vt 0.953939 0.059468 0.000000
vt 0.956143 0.059354 0.000000
vt 0.956128 0.059469 0.000000
vt 0.955058 0.059466 0.000000
vt 0.957088 0.059354 0.000000
vt 0.957068 0.059469 0.000000
vt 0.956168 0.059468 0.000000
vt 0.958038 0.059354 0.000000
vt 0.958023 0.059470 0.000000
vt 0.957119 0.059467 0.000000
vt 0.959138 0.059469 0.000000
vt 0.958064 0.059468 0.000000
# 238 texture coordinates

o Small_Cup
usemtl Mat
f 1/3/1 2/2/1 3/1/1
f 2/8/2 4/7/2 5/6/2 3/5/2
f 4/12/3 8/11/3 9/10/3 5/9/3
f 12/16/4 95/15/4 6/14/4 98/13/4
f 8/20/5 10/19/5 11/18/5 9/17/5
f 12/23/6 13/22/6 14/21/6
f 1/3/1 3/1/1 15/24/1
f 3/5/7 5/6/7 16/26/7 15/25/7
f 5/9/8 9/10/8 18/28/8 16/27/8
f 98/13/9 6/14/9 7/30/9 92/29/9
f 9/17/10 11/18/10 19/32/10 18/31/10
f 14/21/6 13/22/6 20/33/6
f 1/3/1 15/24/1 21/34/1
f 15/38/11 16/37/11 22/36/11 21/35/11
f 16/42/12 18/41/12 24/40/12 22/39/12
f 92/46/13 7/45/13 17/44/13 86/43/13
f 18/49/14 19/32/14 25/48/14 24/47/14
f 20/33/6 13/22/6 26/50/6
f 1/3/1 21/34/1 27/51/1
f 21/35/15 22/36/15 28/53/15 27/52/15
f 22/39/16 24/40/16 30/55/16 28/54/16
f 86/43/17 17/44/17 23/57/17 80/56/17
f 24/47/18 25/48/18 31/59/18 30/58/18
f 26/50/6 13/22/6 32/60/6
f 1/3/1 27/51/1 33/61/1
f 27/52/19 28/53/19 34/63/19 33/62/19
f 28/54/20 30/55/20 36/65/20 34/64/20
f 80/56/21 23/57/21 29/67/21 74/66/21
f 30/58/22 31/59/22 37/69/22 36/68/22
f 32/60/6 13/22/6 38/70/6
f 1/3/1 33/61/1 39/71/1
f 33/62/23 34/63/23 40/73/23 39/72/23
f 34/64/24 36/65/24 42/75/24 40/74/24
f 74/66/25 29/67/25 35/77/25 68/76/25
f 36/68/26 37/69/26 43/79/26 42/78/26
f 38/70/6 13/22/6 44/80/6
f 1/3/1 39/71/1 45/81/1
f 39/85/27 40/84/27 46/83/27 45/82/27
f 40/89/28 42/88/28 48/87/28 46/86/28
f 68/93/29 35/92/29 41/91/29 62/90/29
f 42/97/30 43/96/30 49/95/30 48/94/30
f 44/80/6 13/22/6 50/98/6
f 1/3/1 45/81/1 51/99/1
f 45/82/31 46/83/31 52/101/31 51/100/31
f 46/86/32 48/87/32 54/103/32 52/102/32
f 62/90/33 41/91/33 47/105/33 56/104/33
f 48/94/34 49/95/34 55/107/34 54/106/34
f 50/98/6 13/22/6 56/108/6
f 1/3/1 51/99/1 57/109/1
f 51/100/35 52/101/35 58/111/35 57/110/35
f 52/102/36 54/103/36 60/113/36 58/112/36
f 56/104/37 47/105/37 53/115/37 50/114/37
f 54/106/38 55/107/38 61/117/38 60/116/38
f 56/108/6 13/22/6 62/118/6
f 1/3/1 57/109/1 63/119/1
f 57/110/39 58/111/39 64/121/39 63/120/39
f 58/112/40 60/113/40 66/123/40 64/122/40
f 50/114/41 53/115/41 59/45/41 44/124/41
f 60/116/42 61/117/42 67/126/42 66/125/42
f 62/118/6 13/22/6 68/127/6
f 1/3/1 63/119/1 69/128/1
f 63/132/43 64/131/43 70/130/43 69/129/43
f 64/136/44 66/135/44 72/134/44 70/133/44
f 44/139/45 59/30/45 65/138/45 38/137/45
f 66/142/46 67/126/46 73/141/46 72/140/46
f 68/127/6 13/22/6 74/143/6
f 1/3/1 69/128/1 75/144/1
f 69/129/47 70/130/47 76/146/47 75/145/47
f 70/133/48 72/134/48 78/148/48 76/147/48
f 38/137/49 65/138/49 71/150/49 32/149/49
f 72/140/50 73/141/50 79/152/50 78/151/50
f 74/143/6 13/22/6 80/153/6
f 1/3/1 75/144/1 81/154/1
f 75/145/51 76/146/51 82/156/51 81/155/51
f 76/147/52 78/148/52 84/158/52 82/157/52
f 32/149/53 71/150/53 77/160/53 26/159/53
f 78/151/54 79/152/54 85/162/54 84/161/54
f 80/153/6 13/22/6 86/163/6
f 1/3/1 81/154/1 87/164/1
f 81/155/55 82/156/55 88/166/55 87/165/55
f 82/157/56 84/158/56 90/168/56 88/167/56
f 26/159/57 77/160/57 83/92/57 20/169/57
f 84/161/58 85/162/58 91/171/58 90/170/58
f 86/163/6 13/22/6 92/172/6
f 1/3/1 87/164/1 93/173/1
f 87/177/59 88/176/59 94/175/59 93/174/59
f 88/181/60 90/180/60 96/179/60 94/178/60
f 20/185/61 83/184/61 89/183/61 14/182/61
f 90/188/62 91/171/62 97/187/62 96/186/62
f 92/172/6 13/22/6 98/189/6
f 1/3/1 93/173/1 2/2/1
f 93/174/63 94/175/63 4/7/63 2/8/63
f 94/178/64 96/179/64 8/11/64 4/12/64
f 14/182/65 89/183/65 95/15/65 12/16/65
f 96/186/66 97/187/66 10/19/66 8/20/66
f 98/189/6 13/22/6 12/23/6
f 10/193/6 95/192/6 89/191/6 11/190/6
f 11/190/6 89/196/6 83/195/6 19/194/6
f 19/194/6 83/199/6 77/198/6 25/197/6
f 25/197/6 77/202/6 71/201/6 31/200/6
f 31/200/6 71/205/6 65/204/6 37/203/6
f 37/203/6 65/208/6 59/207/6 43/206/6
f 43/212/6 59/211/6 53/210/6 49/209/6
f 49/209/6 53/215/6 47/214/6 55/213/6
f 55/213/6 47/218/6 41/217/6 61/216/6
f 61/216/6 41/221/6 35/220/6 67/219/6
f 67/219/6 35/224/6 29/223/6 73/222/6
f 73/222/6 29/227/6 23/226/6 79/225/6
f 79/225/6 23/230/6 17/229/6 85/228/6
f 85/228/6 17/233/6 7/232/6 91/231/6
f 91/231/6 7/236/6 6/235/6 97/234/6
f 97/234/6 6/238/6 95/237/6 10/193/6

