# WaveFront *.obj file (generated by Cinema 4D)

mtllib ./Sugar_-_Optimized_-_I_hate_you,_you_know_who_you_are.mtl

v -13.463710 0.605939 5.048891
v -13.463710 0.605939 -5.048891
v -13.463710 2.288903 8.414819
v -13.463710 2.288903 5.048891
v -13.463710 2.288903 -5.048891
v -13.463710 2.288903 -8.414819
v -13.463710 7.337794 8.414819
v -13.463710 7.337794 -8.414819
v -11.780746 -26.321480 6.731855
v -11.780746 -26.321480 -6.731855
v -11.780746 -24.638517 8.414819
v -11.780746 -24.638517 6.731855
v -11.780746 -24.638517 -6.731855
v -11.780746 -24.638517 -8.414819
v -10.097782 3.737532 -8.414819
v -10.097782 3.737532 -6.731855
v 11.780746 0.605939 10.097782
v -11.780746 3.737532 -6.731855
v -11.780746 3.737532 6.731855
v -10.097782 3.737532 6.731855
v -10.097782 3.737532 8.414819
v 11.780746 0.605939 8.414819
v 11.780746 0.605939 5.048891
v -8.414819 3.737532 8.414819
v -8.414819 3.737532 10.097782
v -6.731855 3.737532 10.097782
v -6.731855 3.737532 11.780746
v 11.780746 0.605939 -5.048891
v 11.780746 0.605939 -8.414819
v 6.731855 3.737532 11.780746
v 6.731855 3.737532 10.097782
v 11.780746 0.605939 -10.097782
v -11.780746 0.605939 10.097782
v -11.780746 0.605939 8.414819
v -11.780746 0.605939 5.048891
v -11.780746 0.605939 -5.048891
v -11.780746 0.605939 -8.414819
v -11.780746 0.605939 -10.097782
v -11.780746 2.288903 8.414819
v -11.780746 2.288903 5.048891
v -11.780746 2.288903 -5.048891
v -11.780746 2.288903 -8.414819
v -11.780746 7.337794 10.097782
v -11.780746 7.337794 8.414819
v -11.780746 7.337794 -8.414819
v -11.780746 7.337794 -10.097782
v -10.097782 -26.321480 10.097782
v -10.097782 -26.321480 6.731855
v -10.097782 -26.321480 -6.731855
v -10.097782 -26.321480 -10.097782
v -10.097782 -24.638517 8.414819
v -10.097782 -24.638517 6.731855
v -10.097782 -24.638517 -6.731855
v -10.097782 -24.638517 -8.414819
v 11.780746 -24.638517 -8.414819
v 11.780746 -24.638517 -6.731855
v 11.780746 -24.638517 6.731855
v 11.780746 -24.638517 8.414819
v 11.780746 -26.321480 -6.731855
v 11.780746 -26.321480 6.731855
v 10.097782 7.337794 -11.780746
v 10.097782 7.337794 -10.097782
v 8.414819 3.737532 10.097782
v 8.414819 3.737532 8.414819
v 10.097782 7.337794 10.097782
v 10.097782 7.337794 11.780746
v -10.097782 0.605939 11.780746
v -10.097782 0.605939 10.097782
v -10.097782 0.605939 8.414819
v -10.097782 0.605939 -8.414819
v -10.097782 0.605939 -10.097782
v -10.097782 0.605939 -11.780746
v 10.097782 3.737532 8.414819
v 10.097782 3.737532 6.731855
v -10.097782 7.337794 11.780746
v -10.097782 7.337794 10.097782
v 11.780746 3.737532 6.731855
v 11.780746 3.737532 -6.731855
v -10.097782 7.337794 -10.097782
v -10.097782 7.337794 -11.780746
v -8.414819 -24.638517 11.780746
v -8.414819 -24.638517 10.097782
v -8.414819 -24.638517 -10.097782
v -8.414819 -24.638517 -11.780746
v 11.780746 2.288903 8.414819
v 10.097782 3.737532 -6.731855
v 10.097782 3.737532 -8.414819
v 8.414819 3.737532 -8.414819
v 11.780746 2.288903 5.048891
v 8.414819 3.737532 -10.097782
v 10.097782 0.605939 -11.780746
v 10.097782 0.605939 -10.097782
v 10.097782 0.605939 -8.414819
v 10.097782 0.605939 8.414819
v 10.097782 0.605939 10.097782
v 10.097782 0.605939 11.780746
v -8.414819 0.605939 11.780746
v -8.414819 0.605939 10.097782
v -8.414819 0.605939 -10.097782
v -8.414819 0.605939 -11.780746
v -8.414819 2.288903 13.463710
v -8.414819 2.288903 11.780746
v -8.414819 2.288903 -11.780746
v -8.414819 2.288903 -13.463710
v 6.731855 3.737532 -10.097782
v 6.731855 3.737532 -11.780746
v -6.731855 3.737532 -11.780746
v -6.731855 3.737532 -10.097782
v -8.414819 7.337794 13.463710
v -8.414819 7.337794 11.780746
v -6.731855 -26.321480 10.097782
v -6.731855 -26.321480 6.731855
v -6.731855 -26.321480 -10.097782
v -6.731855 -26.321480 -6.731855
v -8.414819 7.337794 -11.780746
v -8.414819 7.337794 -13.463710
v -6.731855 -26.321480 11.780746
v -6.731855 -26.321480 10.097782
v -6.731855 -26.321480 -10.097782
v -6.731855 -26.321480 -11.780746
v -6.731855 -24.638517 11.780746
v -6.731855 -24.638517 10.097782
v -6.731855 -24.638517 -10.097782
v -6.731855 -24.638517 -11.780746
v 6.731855 -26.321480 10.097782
v 6.731855 -26.321480 6.731855
v 6.731855 -26.321480 -6.731855
v 6.731855 -26.321480 -10.097782
v 8.414819 7.337794 13.463710
v 11.780746 7.337794 -8.414819
v 11.780746 7.337794 -10.097782
v 8.414819 2.288903 -13.463710
v 8.414819 2.288903 -11.780746
v 8.414819 2.288903 11.780746
v 8.414819 2.288903 13.463710
v -5.048891 0.605939 13.463710
v -5.048891 0.605939 11.780746
v -5.048891 0.605939 -11.780746
v -5.048891 0.605939 -13.463710
v -5.048891 2.288903 13.463710
v -5.048891 2.288903 11.780746
v -5.048891 2.288903 -11.780746
v -5.048891 2.288903 -13.463710
v 8.414819 0.605939 -11.780746
v 8.414819 0.605939 -10.097782
v 8.414819 0.605939 10.097782
v 8.414819 0.605939 11.780746
v 8.414819 7.337794 11.780746
v 13.463710 0.605939 5.048891
v 13.463710 0.605939 -5.048891
v 13.463710 2.288903 8.414819
v 13.463710 2.288903 5.048891
v 13.463710 2.288903 -5.048891
v 13.463710 2.288903 -8.414819
v 13.463710 7.337794 8.414819
v 13.463710 7.337794 -8.414819
v 11.780746 2.288903 -5.048891
v 11.780746 2.288903 -8.414819
v 8.414819 -24.638517 -11.780746
v 8.414819 -24.638517 -10.097782
v 8.414819 -24.638517 10.097782
v 8.414819 -24.638517 11.780746
v 8.414819 7.337794 -11.780746
v 8.414819 7.337794 -13.463710
v 6.731855 -24.638517 -11.780746
v 6.731855 -24.638517 -10.097782
v 6.731855 -24.638517 10.097782
v 6.731855 -24.638517 11.780746
v 6.731855 -26.321480 -11.780746
v 6.731855 -26.321480 -10.097782
v 6.731855 -26.321480 10.097782
v 11.780746 7.337794 10.097782
v 11.780746 7.337794 8.414819
v 10.097782 -24.638517 -8.414819
v 6.731855 -26.321480 11.780746
v -8.414819 3.737532 -8.414819
v 5.048891 2.288903 -13.463710
v 5.048891 2.288903 -11.780746
v 5.048891 2.288903 11.780746
v 5.048891 2.288903 13.463710
v 5.048891 0.605939 -13.463710
v 5.048891 0.605939 -11.780746
v 5.048891 0.605939 11.780746
v 5.048891 0.605939 13.463710
v 10.097782 -26.321480 10.097782
v 10.097782 -26.321480 6.731855
v 10.097782 -26.321480 -6.731855
v 10.097782 -24.638517 -6.731855
v 10.097782 -24.638517 6.731855
v 10.097782 -26.321480 -10.097782
v 10.097782 -24.638517 8.414819
v -6.731855 7.337794 -11.780746
v -6.731855 7.337794 -10.097782
v -6.731855 7.337794 10.097782
v 6.731855 7.337794 11.780746
v 6.731855 7.337794 10.097782
v 6.731855 7.337794 -10.097782
v 6.731855 7.337794 -11.780746
v -6.731855 7.337794 11.780746
v -8.414819 7.337794 -10.097782
v -8.414819 7.337794 -8.414819
v -8.414819 7.337794 8.414819
v -8.414819 3.737532 -10.097782
v 8.414819 7.337794 10.097782
v 8.414819 7.337794 8.414819
v 8.414819 7.337794 -8.414819
v 8.414819 7.337794 -10.097782
v -8.414819 7.337794 10.097782
v -10.097782 7.337794 -8.414819
v -10.097782 7.337794 -6.731855
v -10.097782 7.337794 6.731855
v -10.097782 7.337794 8.414819
v -11.780746 7.337794 -6.731855
v 10.097782 7.337794 8.414819
v 10.097782 7.337794 6.731855
v 10.097782 7.337794 -6.731855
v 10.097782 7.337794 -8.414819
v -11.780746 7.337794 6.731855
v 11.780746 7.337794 -6.731855
v 11.780746 7.337794 6.731855
v 8.059787 -0.306549 6.716489
v 8.059787 -0.306549 5.373191
v 9.403085 -0.306549 5.373191
v 9.403085 -0.306549 -5.373191
v 8.059787 -0.306549 -5.373191
v 8.059787 -0.306549 -6.716489
v 6.716489 -0.306549 -6.716489
v 6.716489 -0.306549 -8.059787
v 5.373191 -0.306549 -8.059787
v 5.373191 -0.306549 -9.403085
v -5.373191 -0.306549 -9.403085
v -5.373191 -0.306549 -8.059787
v -6.716489 -0.306549 -8.059787
v -6.716489 -0.306549 -6.716489
v -8.059787 -0.306549 -6.716489
v -8.059787 -0.306549 -5.373191
v -9.403085 -0.306549 -5.373191
v -9.403085 -0.306549 5.373191
v -8.059787 -0.306549 5.373191
v -8.059787 -0.306549 6.716489
v -6.716489 -0.306549 6.716489
v -6.716489 -0.306549 8.059787
v -5.373191 -0.306549 8.059787
v -5.373191 -0.306549 9.403085
v 5.373191 -0.306549 9.403085
v 5.373191 -0.306549 8.059787
v 6.716489 -0.306549 8.059787
v 6.716489 -0.306549 6.716489
v 5.218712 -23.715439 5.218712
v 6.262455 -23.715439 5.218712
v 5.218712 -23.715439 6.262455
v 4.174970 -23.715439 6.262455
v 4.174970 -23.715439 7.306197
v -4.174970 -23.715439 7.306197
v -4.174970 -23.715439 6.262455
v -5.218712 -23.715439 6.262455
v -5.218712 -23.715439 5.218712
v -6.262455 -23.715439 5.218712
v -6.262455 -23.715439 4.174970
v -7.306197 -23.715439 4.174970
v -7.306197 -23.715439 -4.174970
v -6.262455 -23.715439 -4.174970
v -6.262455 -23.715439 -5.218712
v 4.174970 -23.715439 -6.262455
v -5.218712 -23.715439 -6.262455
v -4.174970 -23.715439 -6.262455
v -4.174970 -23.715439 -7.306197
v 4.174970 -23.715439 -7.306197
v 4.174970 -23.715439 -6.262455
v 5.218712 -23.715439 -6.262455
v 5.218712 -23.715439 -5.218712
v 6.262455 -23.715439 -5.218712
v 6.262455 -23.715439 -4.174970
v 7.306197 -23.715439 -4.174970
v 7.306197 -23.715439 4.174970
v 6.262455 -23.715439 4.174970
v -5.218712 -23.715439 -4.174970
v -5.218712 -23.715439 4.174970
v -4.174970 -23.715439 5.218712
v -4.174970 -23.715439 -4.174970
v -4.174970 -23.715439 -5.218712
v -4.174970 -23.715439 -5.218712
v -4.174970 -23.715439 4.174970
v -4.174970 -23.715439 5.218712
v -4.174970 -23.715439 6.262455
v -4.174970 -23.715439 -6.262455
v -5.218712 -23.715439 5.218712
v -5.218712 -23.715439 -5.221439
v 5.218712 -23.715439 4.174970
v 5.218712 -23.715439 -4.174970
v 5.218712 -23.715439 -5.218712
v 5.218712 -23.715439 5.218712
v 4.174970 -23.715439 4.174970
v 4.174970 -23.715439 5.218712
v 4.174970 -23.715439 -4.174970
v 4.174970 -23.715439 -5.218712
v 4.174970 -23.715439 -5.218712
# 297 vertices

vn 0.000000 1.000000 0.000000
vn 0.973497 0.228701 0.000000
vn 0.997959 0.063853 0.000000
vn -0.000000 1.000000 0.000000
vn -0.000000 1.000000 0.000000
vn 0.000000 0.000000 -1.000000
vn 1.000000 0.000000 0.000000
vn 0.000000 0.000000 1.000000
vn -1.000000 0.000000 0.000000
vn 0.980305 0.197488 0.000000
vn 0.000000 -1.000000 0.000000
vn 0.000000 0.197488 0.980305
vn 0.000000 0.231286 0.972886
vn 0.972886 0.231286 0.000000
vn 0.000000 0.161349 0.986897
vn 0.964896 0.262634 0.000000
vn 0.000000 0.161349 -0.986897
vn 0.972886 0.231286 0.000000
vn 0.000000 0.197488 -0.980305
vn 0.000000 0.231286 -0.972886
vn 0.986897 0.161349 0.000000
vn 0.000000 0.262634 -0.964896
vn -0.986897 0.161349 0.000000
vn 0.000000 0.231286 -0.972886
vn -0.980305 0.197488 0.000000
vn -0.972886 0.231286 0.000000
vn 0.000000 0.161349 -0.986897
vn -0.964896 0.262634 0.000000
vn 0.000000 0.161349 0.986897
vn -0.972886 0.231286 0.000000
vn 0.000000 0.231286 0.972886
vn -0.986897 0.161349 0.000000
vn 0.000000 0.262634 0.964896
vn 0.986897 0.161349 0.000000
vn -0.963312 0.268383 0.000000
vn 0.000000 0.186530 -0.982449
vn -0.952205 0.305459 0.000000
vn 0.000000 0.186530 0.982449
vn -0.963312 0.268383 0.000000
vn 0.000000 0.228701 0.973497
vn -0.973497 0.228701 0.000000
vn 0.000000 0.268383 0.963312
vn -0.982449 0.186530 0.000000
vn 0.000000 0.305459 0.952205
vn 0.982449 0.186530 0.000000
vn 0.000000 0.268383 0.963312
vn 0.000661 0.228713 0.973494
vn 0.963312 0.268383 0.000000
vn 0.000000 0.186530 0.982449
vn 0.952205 0.305459 0.000000
vn 0.000000 0.186530 -0.982449
vn 0.963312 0.268383 0.000000
vn 0.000000 0.228701 -0.973497
vn 0.973497 0.228701 0.000000
vn 0.000000 0.268383 -0.963312
vn 0.982449 0.186530 0.000000
vn 0.000000 0.305459 -0.952205
vn -0.982449 0.186530 0.000000
vn 0.000000 0.268383 -0.963312
vn -0.973497 0.228701 0.000000
vn 0.000000 0.228701 -0.973497
vn 0.000000 0.063853 -0.997959
vn -0.997959 0.063853 0.000000
vn 0.000000 0.076555 -0.997065
vn -0.998693 0.051120 0.000000
vn 0.000000 0.089219 -0.996012
vn 0.998693 0.051120 0.000000
vn 0.997959 0.063853 0.000000
vn 0.000000 0.063853 -0.997959
vn 0.997065 0.076555 0.000000
vn 0.000000 0.051120 -0.998693
vn 0.996012 0.089219 0.000000
vn 0.000000 0.051120 0.998693
vn 0.001303 0.063878 0.997957
vn 0.000000 0.076555 0.997065
vn 0.998693 0.051120 0.000000
vn 0.000000 0.089219 0.996012
vn -0.998693 0.051120 0.000000
vn -0.997959 0.063853 0.000000
vn 0.000000 0.063853 0.997959
vn -0.997065 0.076555 0.000000
vn 0.000000 0.051120 0.998693
vn -0.996012 0.089219 0.000000
vn 0.000000 0.051120 -0.998693
vn -0.000000 1.000000 0.000000
vn -0.000000 1.000000 0.000000
vn -0.000000 1.000000 0.000000
vn -0.000000 1.000000 0.000000
# 88 normals

vt 0.962891 0.500000 0.000000
vt 0.748047 0.500000 0.000000
# 2 texture coordinates

o Polygon
usemtl default
f 265/1/1 288/1/1 281/1/1 286/1/1
f 234/1/2 288/1/3 265/1/3 233/1/2
f 287/1/1 278/1/1 259/1/1 258/1/1
f 279/1/4 283/1/1 278/1/1 287/1/1
f 277/1/1 278/1/1 283/1/1 280/1/1
f 250/1/1 276/1/1 289/1/1 292/1/5
f 138/1/6 124/2/6 84/2/6 100/1/6
f 103/1/6 142/1/6 138/1/6 100/1/6
f 215/1/1 173/1/1 155/1/1 220/1/1
f 215/1/1 214/1/1 172/1/1 173/1/1
f 133/1/6 163/1/6 61/1/6
f 131/1/7 130/1/7 158/1/7
f 164/1/7 163/1/7 133/1/7 132/1/7
f 205/1/1 65/1/1 172/1/1 214/1/1
f 205/1/1 204/1/1 66/1/1 65/1/1
f 22/1/7 23/1/7 89/1/7 85/1/7
f 148/1/7 129/1/7 135/1/7 134/1/7
f 204/1/1 196/1/1 148/1/1 66/1/1
f 172/1/7 17/1/7 22/1/7 85/1/7
f 66/1/8 148/1/8 134/1/8
f 102/1/8 110/1/8 75/1/8
f 39/1/9 40/1/9 35/1/9 34/1/9
f 65/1/7 66/1/7 96/1/7 95/1/7
f 176/1/10 203/1/10 200/1/7 201/1/7
f 4/1/9 7/1/9 8/1/9 5/1/9
f 4/1/9 5/1/9 2/1/9 1/1/9
f 164/1/6 177/1/6 143/1/6 116/1/6
f 153/1/7 156/1/7 155/1/7 152/1/7
f 153/1/7 152/1/7 149/1/7 150/1/7
f 140/1/8 180/1/8 129/1/8 109/1/8
f 140/1/8 109/1/8 101/1/8
f 183/1/8 137/1/8 121/2/8 168/2/8
f 35/1/9 36/1/9 13/2/9 12/2/9
f 182/1/6 165/2/6 124/2/6 138/1/6
f 57/2/7 56/2/7 28/1/7 23/1/7
f 22/1/7 58/2/7 57/2/7 23/1/7
f 187/2/11 59/2/11 60/2/11 186/2/11
f 119/2/11 120/2/11 169/2/11 170/2/11
f 48/2/11 9/2/11 10/2/11 49/2/11
f 118/2/11 171/2/11 175/2/11 117/2/11
f 53/2/9 54/2/9 50/2/9 49/2/9
f 71/1/6 99/1/6 83/2/6 50/2/6
f 145/1/6 92/1/6 190/2/6 160/2/6
f 188/2/7 187/2/7 190/2/7 174/2/7
f 189/2/7 191/2/7 185/2/7 186/2/7
f 68/1/9 69/1/9 51/2/9 47/2/9
f 118/2/8 122/2/8 82/2/8 47/2/8
f 185/2/8 161/2/8 167/2/8 171/2/8
f 162/2/8 147/1/8 183/1/8 168/2/8
f 35/1/9 12/2/9 11/2/9 34/1/9
f 103/1/6 80/1/6 115/1/6
f 42/1/9 46/1/9 38/1/9 37/1/9
f 36/1/9 41/1/9 42/1/9 37/1/9
f 33/1/9 43/1/9 39/1/9 34/1/9
f 102/1/8 75/1/8 67/1/8 97/1/8
f 137/1/8 141/1/8 102/1/8 97/1/8
f 147/1/8 96/1/8 66/1/8 134/1/8
f 147/1/8 134/1/8 179/1/8 183/1/8
f 172/1/7 85/1/7 173/1/7
f 29/1/7 32/1/7 131/1/7 158/1/7
f 29/1/7 158/1/7 157/1/7 28/1/7
f 133/1/6 61/1/6 91/1/6 144/1/6
f 182/1/6 178/1/6 133/1/6 144/1/6
f 182/1/6 144/1/6 159/2/6 165/2/6
f 43/1/9 44/1/9 39/1/9
f 42/1/9 45/1/9 46/1/9
f 97/1/9 98/1/9 82/2/9 81/2/9
f 99/1/9 100/1/9 84/2/9 83/2/9
f 146/1/7 147/1/7 162/2/7 161/2/7
f 144/1/7 145/1/7 160/2/7 159/2/7
f 37/1/6 70/1/6 54/2/6 14/2/6
f 51/2/8 69/1/8 34/1/8 11/2/8
f 58/2/8 22/1/8 94/1/8 191/2/8
f 211/1/1 218/1/1 7/1/1 44/1/1
f 213/1/1 210/1/1 45/1/1 8/1/1
f 210/1/1 209/1/1 46/1/1 45/1/1
f 8/1/9 6/1/9 5/1/9
f 4/1/9 3/1/9 7/1/9
f 209/1/1 201/1/1 79/1/1 46/1/1
f 201/1/1 200/1/1 80/1/1 79/1/1
f 200/1/1 193/1/1 115/1/1 80/1/1
f 193/1/1 192/1/1 116/1/1 115/1/1
f 15/1/12 176/1/12 201/1/8 209/1/8
f 203/1/13 108/1/13 193/1/8 200/1/8
f 198/1/1 197/1/1 163/1/1 164/1/1
f 197/1/1 207/1/1 61/1/1 163/1/1
f 207/1/1 206/1/1 62/1/1 61/1/1
f 206/1/1 217/1/1 131/1/1 62/1/1
f 217/1/1 216/1/1 130/1/1 131/1/1
f 216/1/1 219/1/1 156/1/1 130/1/1
f 219/1/1 220/1/1 155/1/1 156/1/1
f 143/1/6 104/1/6 116/1/6
f 177/1/6 181/1/6 139/1/6 143/1/6
f 164/1/6 132/1/6 177/1/6
f 153/1/7 154/1/7 156/1/7
f 155/1/7 151/1/7 152/1/7
f 140/1/8 136/1/8 184/1/8 180/1/8
f 180/1/8 135/1/8 129/1/8
f 121/2/8 117/2/8 175/2/8 168/2/8
f 13/2/9 10/2/9 9/2/9 12/2/9
f 165/2/6 169/2/6 120/2/6 124/2/6
f 57/2/7 60/2/7 59/2/7 56/2/7
f 56/2/7 55/2/7 29/1/7 28/1/7
f 55/2/6 174/2/6 93/1/6 29/1/6
f 111/2/11 112/2/11 126/2/11 125/2/11
f 48/2/11 49/2/11 114/2/11 112/2/11
f 112/2/11 114/2/11 127/2/11 126/2/11
f 195/1/1 199/1/1 109/1/1 129/1/1
f 218/1/1 213/1/1 8/1/1 7/1/1
f 125/2/11 126/2/11 186/2/11 185/2/11
f 47/2/11 48/2/11 112/2/11 111/2/11
f 127/2/11 128/2/11 190/2/11 187/2/11
f 114/2/11 113/2/11 128/2/11 127/2/11
f 126/2/11 127/2/11 187/2/11 186/2/11
f 49/2/11 50/2/11 113/2/11 114/2/11
f 192/1/1 198/1/1 164/1/1 116/1/1
f 16/1/14 15/1/14 209/1/7 210/1/7
f 18/1/15 16/1/15 210/1/8 213/1/8
f 19/1/16 18/1/16 213/1/7 218/1/7
f 83/2/6 123/2/6 119/2/6 50/2/6
f 20/1/17 19/1/17 218/1/6 211/1/6
f 21/1/18 20/1/18 211/1/7 212/1/7
f 24/1/19 21/1/19 212/1/6 202/1/6
f 25/1/10 24/1/10 202/1/7 208/1/7
f 26/1/20 25/1/20 208/1/6 194/1/6
f 27/1/21 26/1/21 194/1/7 199/1/7
f 30/1/22 27/1/22 199/1/6 195/1/6
f 31/1/23 30/1/23 195/1/9 196/1/9
f 63/1/24 31/1/24 196/1/6 204/1/6
f 64/1/25 63/1/25 204/1/9 205/1/9
f 73/1/19 64/1/19 205/1/6 214/1/6
f 74/1/26 73/1/26 214/1/9 215/1/9
f 77/1/27 74/1/27 215/1/6 220/1/6
f 78/1/28 77/1/28 220/1/9 219/1/9
f 86/1/29 78/1/29 219/1/8 216/1/8
f 87/1/30 86/1/30 216/1/9 217/1/9
f 88/1/12 87/1/12 217/1/8 206/1/8
f 90/1/25 88/1/25 206/1/9 207/1/9
f 105/1/31 90/1/31 207/1/8 197/1/8
f 75/1/9 76/1/9 68/1/9 67/1/9
f 106/1/32 105/1/32 197/1/9 198/1/9
f 195/1/1 129/1/1 148/1/1 196/1/1
f 107/1/33 106/1/33 198/1/8 192/1/8
f 79/1/9 80/1/9 72/1/9 71/1/9
f 108/1/34 107/1/34 192/1/7 193/1/7
f 194/1/1 110/1/1 109/1/1 199/1/1
f 103/1/6 100/1/6 72/1/6 80/1/6
f 36/1/9 37/1/9 14/2/9 13/2/9
f 137/1/8 97/1/8 81/2/8 121/2/8
f 185/2/8 95/1/8 146/1/8 161/2/8
f 153/1/6 150/1/6 28/1/6 157/1/6
f 53/2/6 49/2/6 10/2/6 13/2/6
f 82/2/8 98/1/8 68/1/8 47/2/8
f 51/2/9 52/2/9 48/2/9 47/2/9
f 56/2/6 59/2/6 187/2/6 188/2/6
f 45/1/6 42/1/6 6/1/6 8/1/6
f 39/1/8 44/1/8 7/1/8 3/1/8
f 17/1/8 172/1/8 65/1/8 95/1/8
f 194/1/1 208/1/1 75/1/1 110/1/1
f 109/1/9 110/1/9 102/1/9 101/1/9
f 208/1/1 202/1/1 76/1/1 75/1/1
f 202/1/1 212/1/1 43/1/1 76/1/1
f 156/1/6 154/1/6 158/1/6 130/1/6
f 212/1/1 211/1/1 44/1/1 43/1/1
f 79/1/6 71/1/6 38/1/6 46/1/6
f 115/1/9 116/1/9 104/1/9 103/1/9
f 191/2/7 94/1/7 95/1/7 185/2/7
f 121/2/9 122/2/9 118/2/9 117/2/9
f 54/2/9 70/1/9 71/1/9 50/2/9
f 123/2/9 124/2/9 120/2/9 119/2/9
f 190/2/6 170/2/6 166/2/6 160/2/6
f 165/2/7 166/2/7 170/2/7 169/2/7
f 167/2/7 168/2/7 175/2/7 171/2/7
f 61/1/7 62/1/7 92/1/7 91/1/7
f 177/1/7 178/1/7 182/1/7 181/1/7
f 179/1/7 180/1/7 184/1/7 183/1/7
f 177/1/11 132/1/11 133/1/11 178/1/11
f 140/1/9 141/1/9 137/1/9 136/1/9
f 190/2/7 92/1/7 93/1/7 174/2/7
f 142/1/9 143/1/9 139/1/9 138/1/9
f 131/1/6 32/1/6 92/1/6 62/1/6
f 104/1/11 143/1/11 142/1/11 103/1/11
f 82/2/11 122/2/11 121/2/11 81/2/11
f 158/1/11 154/1/11 153/1/11 157/1/11
f 167/2/11 161/2/11 162/2/11 168/2/11
f 6/1/11 42/1/11 41/1/11 5/1/11
f 68/1/8 76/1/8 43/1/8 33/1/8
f 151/1/8 155/1/8 173/1/8 85/1/8
f 12/2/11 52/2/11 51/2/11 11/2/11
f 48/2/8 52/2/8 12/2/8 9/2/8
f 189/2/11 57/2/11 58/2/11 191/2/11
f 89/1/11 152/1/11 151/1/11 85/1/11
f 14/2/11 54/2/11 53/2/11 13/2/11
f 4/1/11 40/1/11 39/1/11 3/1/11
f 174/2/11 55/2/11 56/2/11 188/2/11
f 179/1/11 134/1/11 135/1/11 180/1/11
f 84/2/11 124/2/11 123/2/11 83/2/11
f 102/1/11 141/1/11 140/1/11 101/1/11
f 165/2/11 159/2/11 160/2/11 166/2/11
f 139/1/11 181/1/11 182/1/11 138/1/11
f 137/1/11 183/1/11 184/1/11 136/1/11
f 60/2/8 57/2/8 189/2/8 186/2/8
f 68/1/11 98/1/11 97/1/11 67/1/11
f 35/1/8 40/1/8 4/1/8 1/1/8
f 146/1/11 95/1/11 96/1/11 147/1/11
f 41/1/6 36/1/6 2/1/6 5/1/6
f 34/1/11 69/1/11 68/1/11 33/1/11
f 144/1/11 91/1/11 92/1/11 145/1/11
f 94/1/11 22/1/11 17/1/11 95/1/11
f 149/1/8 152/1/8 89/1/8 23/1/8
f 2/1/11 36/1/11 35/1/11 1/1/11
f 72/1/11 100/1/11 99/1/11 71/1/11
f 28/1/11 150/1/11 149/1/11 23/1/11
f 92/1/11 32/1/11 29/1/11 93/1/11
f 38/1/11 71/1/11 70/1/11 37/1/11
f 74/1/26 222/1/35 221/1/35 73/1/26
f 77/1/27 223/1/36 222/1/36 74/1/27
f 78/1/28 224/1/37 223/1/37 77/1/28
f 86/1/29 225/1/38 224/1/38 78/1/29
f 87/1/30 226/1/39 225/1/39 86/1/30
f 88/1/12 227/1/40 226/1/40 87/1/12
f 90/1/25 228/1/41 227/1/41 88/1/25
f 105/1/31 229/1/42 228/1/42 90/1/31
f 106/1/32 230/1/43 229/1/43 105/1/32
f 107/1/33 231/1/44 230/1/44 106/1/33
f 108/1/34 232/1/45 231/1/45 107/1/34
f 203/1/13 233/1/46 232/1/46 108/1/13
f 176/1/10 234/1/2 233/1/2 203/1/10
f 15/1/12 235/1/47 234/1/47 176/1/12
f 16/1/14 236/1/48 235/1/48 15/1/14
f 18/1/15 237/1/49 236/1/49 16/1/15
f 19/1/16 238/1/50 237/1/50 18/1/16
f 20/1/17 239/1/51 238/1/51 19/1/17
f 21/1/18 240/1/52 239/1/52 20/1/18
f 24/1/19 241/1/53 240/1/53 21/1/19
f 25/1/10 242/1/54 241/1/54 24/1/10
f 26/1/20 243/1/55 242/1/55 25/1/20
f 27/1/21 244/1/56 243/1/56 26/1/21
f 30/1/22 245/1/57 244/1/57 27/1/22
f 31/1/23 246/1/58 245/1/58 30/1/23
f 63/1/24 247/1/59 246/1/59 31/1/24
f 64/1/25 248/1/60 247/1/60 63/1/25
f 73/1/19 221/1/61 248/1/61 64/1/19
f 221/1/61 250/1/62 249/1/62 248/1/61
f 248/1/60 249/1/63 251/1/63 247/1/60
f 247/1/59 251/1/64 252/1/64 246/1/59
f 246/1/58 252/1/65 253/1/65 245/1/58
f 245/1/57 253/1/66 254/1/66 244/1/57
f 244/1/56 254/1/67 255/1/67 243/1/56
f 243/1/55 255/1/64 256/1/64 242/1/55
f 242/1/54 256/1/68 257/1/68 241/1/54
f 241/1/53 257/1/69 258/1/69 240/1/53
f 240/1/52 258/1/70 259/1/70 239/1/52
f 239/1/51 259/1/71 260/1/71 238/1/51
f 238/1/50 260/1/72 261/1/72 237/1/50
f 237/1/49 261/1/73 262/1/73 236/1/49
f 236/1/48 262/1/70 263/1/70 235/1/48
f 235/1/47 263/1/74 288/1/74 234/1/47
f 233/1/46 265/1/75 266/1/75 232/1/46
f 232/1/45 266/1/76 267/1/76 231/1/45
f 231/1/44 267/1/77 268/1/77 230/1/44
f 230/1/43 268/1/78 269/1/78 229/1/43
f 229/1/42 269/1/75 270/1/75 228/1/42
f 228/1/41 270/1/79 271/1/79 227/1/41
f 227/1/40 271/1/80 272/1/80 226/1/40
f 226/1/39 272/1/81 273/1/81 225/1/39
f 225/1/38 273/1/82 274/1/82 224/1/38
f 224/1/37 274/1/83 275/1/83 223/1/37
f 223/1/36 275/1/84 276/1/84 222/1/36
f 222/1/35 276/1/81 250/1/81 221/1/35
f 255/1/86 254/1/1 253/1/1 252/1/85
f 257/1/1 256/1/1 285/1/1 284/1/1
f 267/1/1 266/1/1 269/1/1 268/1/1
f 282/1/1 280/1/1 295/1/1 296/1/1
f 262/1/1 261/1/1 260/1/1 259/1/1
f 274/1/1 273/1/1 276/1/1 275/1/1
f 262/1/1 259/1/1 278/1/1 277/1/1
f 280/1/1 283/1/1 293/1/1 295/1/1
f 295/1/1 293/1/1 289/1/1 290/1/1
f 286/1/1 281/1/1 297/1/1 264/1/1
f 277/1/1 280/1/1 281/1/1 288/1/1
f 288/1/1 263/1/1 262/1/1 277/1/1
f 290/1/1 289/1/1 276/1/1 273/1/1
f 264/1/1 297/1/1 271/1/1 270/1/1
f 291/1/1 290/1/1 273/1/1 272/1/1
f 294/1/87 293/1/1 283/1/1 279/1/4
f 292/1/5 289/1/1 293/1/1 294/1/87
f 296/1/1 295/1/1 290/1/1 291/1/1
f 292/1/5 294/1/87 252/1/85 251/1/88
f 255/1/86 252/1/85 294/1/87 279/1/4

