# Blender v3.1.2 OBJ File: ''
# www.blender.org
mtllib Tea_bag_textured.mtl
o Tea_bag
v -0.018134 0.004035 -0.000713
v -0.015296 0.004035 -0.003066
v -0.015296 0.000218 -0.000446
v -0.018134 0.000218 -0.000096
v 0.018312 0.000218 -0.000086
v 0.018312 0.004035 -0.000664
v 0.018312 0.004035 0.000696
v 0.018312 0.000218 0.000118
v 0.015474 0.004035 0.003099
v 0.015474 0.000218 0.000478
v -0.018134 0.000218 0.000129
v -0.018134 0.004035 0.000746
v -0.018134 0.034676 0.000138
v -0.015296 0.035561 0.000530
v -0.015296 0.035561 -0.000498
v -0.018134 0.034676 -0.000105
v -0.015296 0.000218 0.000478
v -0.015296 0.033631 -0.003066
v -0.018134 0.033631 -0.000713
v 0.018312 0.033631 -0.000664
v 0.018312 0.034676 -0.000097
v 0.018312 0.034676 0.000130
v 0.018312 0.033631 0.000696
v 0.015474 0.035561 0.000530
v 0.015474 0.033631 0.003099
v -0.018134 0.033631 0.000746
v 0.009443 0.004035 -0.003066
v 0.015474 0.004035 -0.003066
v 0.015474 0.000218 -0.000446
v 0.009443 0.000218 -0.000446
v -0.009266 0.004035 -0.003066
v -0.009266 0.000218 -0.000446
v -0.009266 0.004035 0.003099
v -0.015296 0.004035 0.003099
v -0.009266 0.000218 0.000478
v 0.009443 0.004035 0.003099
v 0.009443 0.000218 0.000478
v 0.009443 0.040442 0.000530
v 0.015474 0.035561 -0.000498
v 0.009443 0.040442 -0.000498
v -0.009266 0.040442 0.000530
v -0.009266 0.040442 -0.000498
v 0.015474 0.033631 -0.003066
v 0.009443 0.033631 -0.003066
v -0.009266 0.033631 -0.003066
v -0.015296 0.033631 0.003099
v -0.009266 0.033631 0.003099
v 0.009443 0.033631 0.003099
vt 0.105923 0.190787
vt 0.167705 0.190787
vt 0.167705 0.107713
vt 0.105923 0.107713
vt 0.039031 0.118704
vt 0.024409 0.215211
vt 0.058812 0.215211
vt 0.044189 0.118704
vt 0.105923 0.190787
vt 0.167705 0.190787
vt 0.167705 0.107713
vt 0.105923 0.107713
vt 0.038974 0.118704
vt 0.023365 0.215211
vt 0.060273 0.215211
vt 0.044664 0.118704
vt 0.012497 0.081527
vt 0.087573 0.091907
vt 0.087573 0.064708
vt 0.012497 0.075089
vt 0.012451 0.032372
vt 0.087527 0.041624
vt 0.087527 0.017169
vt 0.012451 0.026420
vt 0.105923 0.857865
vt 0.167705 0.877130
vt 0.167705 0.835112
vt 0.105923 0.835112
vt 0.024409 0.963731
vt 0.038742 0.990164
vt 0.044479 0.990164
vt 0.058812 0.963731
vt 0.105923 0.857865
vt 0.167705 0.877130
vt 0.167705 0.835112
vt 0.105923 0.835112
vt 0.023365 0.963731
vt 0.038742 0.990164
vt 0.044897 0.990164
vt 0.060273 0.963731
vt 0.706283 0.190787
vt 0.837568 0.190787
vt 0.837568 0.107713
vt 0.706283 0.107713
vt 0.298991 0.190787
vt 0.298991 0.107713
vt 0.706283 0.190787
vt 0.837568 0.190787
vt 0.837568 0.107713
vt 0.706283 0.107713
vt 0.298991 0.190787
vt 0.298991 0.107713
vt 0.742043 0.091907
vt 0.901580 0.091907
vt 0.901580 0.064708
vt 0.742043 0.064708
vt 0.247109 0.091907
vt 0.247109 0.064708
vt 0.741998 0.041624
vt 0.901534 0.041624
vt 0.901534 0.017169
vt 0.741998 0.017169
vt 0.247063 0.041624
vt 0.247063 0.017169
vt 0.706283 0.983400
vt 0.837568 0.877130
vt 0.837568 0.835112
vt 0.706283 0.835112
vt 0.298991 0.983400
vt 0.298991 0.835112
vt 0.706283 0.983400
vt 0.837568 0.877130
vt 0.837568 0.835112
vt 0.706283 0.835112
vt 0.298991 0.983400
vt 0.298991 0.835112
vt 0.899350 0.190787
vt 0.899350 0.107713
vt 0.899350 0.190787
vt 0.899350 0.107713
vt 0.976655 0.081308
vt 0.976655 0.075307
vt 0.976610 0.032094
vt 0.976610 0.026698
vt 0.899350 0.857865
vt 0.899350 0.835112
vt 0.899350 0.857865
vt 0.899350 0.835112
vn -0.5119 -0.1687 -0.8423
vn -0.2686 -0.2408 -0.9327
vn -0.1845 -0.4584 -0.8694
vn -0.3601 -0.3290 -0.8730
vn 1.0000 0.0000 0.0000
vn 0.5192 -0.1654 0.8385
vn 0.2728 -0.2393 0.9318
vn 0.1881 -0.4556 0.8701
vn 0.3669 -0.3227 0.8725
vn -1.0000 0.0000 0.0000
vn -0.2977 0.9547 0.0000
vn -0.4718 0.8817 0.0000
vn -0.0000 -1.0000 -0.0000
vn -0.4613 0.5997 -0.6539
vn -0.3074 0.6080 -0.7320
vn -0.3411 0.3285 -0.8808
vn -0.5799 0.3163 -0.7508
vn 0.4712 0.5881 0.6574
vn 0.3126 0.6026 0.7343
vn 0.3460 0.3254 0.8800
vn 0.5878 0.3094 0.7475
vn 0.0000 -0.2963 -0.9551
vn 0.2820 -0.2505 -0.9261
vn 0.2044 -0.4761 -0.8553
vn 0.0000 -0.5660 -0.8244
vn 0.0000 -0.2963 0.9551
vn -0.2777 -0.2513 0.9272
vn -0.2006 -0.4777 0.8553
vn 0.0000 -0.5660 0.8244
vn 0.3337 0.9427 0.0000
vn 0.4718 0.8817 -0.0000
vn -0.3337 0.9427 0.0000
vn 0.1498 0.4622 -0.8740
vn 0.3312 0.5785 -0.7454
vn 0.3543 0.3130 -0.8812
vn 0.0766 0.2364 -0.9686
vn -0.0731 0.4818 -0.8732
vn -0.0375 0.2473 -0.9682
vn -0.1498 0.4622 0.8740
vn -0.3295 0.5848 0.7412
vn -0.3514 0.3166 0.8811
vn -0.0766 0.2364 0.9686
vn 0.0731 0.4818 0.8732
vn 0.0375 0.2473 0.9682
vn 0.5357 -0.1857 -0.8237
vn 0.3983 -0.3620 -0.8428
vn -0.5282 -0.1878 0.8281
vn -0.3914 -0.3659 0.8443
vn 0.2977 0.9547 0.0000
vn 0.3674 0.6012 -0.7096
vn 0.5373 0.3188 -0.7808
vn -0.3640 0.6135 0.7008
vn -0.5324 0.3259 0.7812
usemtl Tea_Bag_Texture
s 1
f 1/1/1 2/2/2 3/3/3 4/4/4
f 5/5/5 6/6/5 7/7/5 8/8/5
f 7/9/6 9/10/7 10/11/8 8/12/9
f 11/13/10 12/14/10 1/15/10 4/16/10
f 13/17/11 14/18/12 15/19/12 16/20/11
f 4/21/13 3/22/13 17/23/13 11/24/13
f 16/25/14 15/26/15 18/27/16 19/28/17
f 19/28/17 18/27/16 2/2/2 1/1/1
f 20/29/5 21/30/5 22/31/5 23/32/5
f 6/6/5 20/29/5 23/32/5 7/7/5
f 22/33/18 24/34/19 25/35/20 23/36/21
f 23/36/21 25/35/20 9/10/7 7/9/6
f 26/37/10 13/38/10 16/39/10 19/40/10
f 12/14/10 26/37/10 19/40/10 1/15/10
f 27/41/22 28/42/23 29/43/24 30/44/25
f 31/45/22 27/41/22 30/44/25 32/46/25
f 33/47/26 34/48/27 17/49/28 35/50/29
f 36/51/26 33/47/26 35/50/29 37/52/29
f 38/53/30 24/54/31 39/55/31 40/56/30
f 41/57/32 38/53/30 40/56/30 42/58/32
f 30/59/13 29/60/13 10/61/13 37/62/13
f 32/63/13 30/59/13 37/62/13 35/64/13
f 40/65/33 39/66/34 43/67/35 44/68/36
f 42/69/37 40/65/33 44/68/36 45/70/38
f 44/68/36 43/67/35 28/42/23 27/41/22
f 45/70/38 44/68/36 27/41/22 31/45/22
f 41/71/39 14/72/40 46/73/41 47/74/42
f 38/75/43 41/71/39 47/74/42 48/76/44
f 47/74/42 46/73/41 34/48/27 33/47/26
f 48/76/44 47/74/42 33/47/26 36/51/26
f 2/2/2 31/45/22 32/46/25 3/3/3
f 9/10/7 36/51/26 37/52/29 10/11/8
f 14/18/12 41/57/32 42/58/32 15/19/12
f 3/22/13 32/63/13 35/64/13 17/23/13
f 15/26/15 42/69/37 45/70/38 18/27/16
f 18/27/16 45/70/38 31/45/22 2/2/2
f 24/34/19 38/75/43 48/76/44 25/35/20
f 25/35/20 48/76/44 36/51/26 9/10/7
f 28/42/23 6/77/45 5/78/46 29/43/24
f 34/48/27 12/79/47 11/80/48 17/49/28
f 24/54/31 22/81/49 21/82/49 39/55/31
f 29/60/13 5/83/13 8/84/13 10/61/13
f 39/66/34 21/85/50 20/86/51 43/67/35
f 43/67/35 20/86/51 6/77/45 28/42/23
f 14/72/40 13/87/52 26/88/53 46/73/41
f 46/73/41 26/88/53 12/79/47 34/48/27
