# WaveFront *.obj file (generated by Cinema 4D)

mtllib ./Chair2.mtl

v 50.246042 120.199747 40.157362
v -21.665808 120.199747 40.157362
v 50.246042 127.190301 40.768956
v -21.665808 127.190301 40.768956
v 50.246042 127.364612 38.776567
v -21.665808 127.364612 38.776567
v 50.246042 120.374059 38.164973
v -21.665808 120.374059 38.164973
# 8 vertices

vn 0.000000 -0.087155 0.996195
vn 0.000000 0.996195 0.087154
vn 0.000000 0.087155 -0.996195
vn 0.000000 -0.996195 -0.087158
# 4 normals

vt 0.062269 0.021288 0.000000
vt 0.062269 0.504206 0.000000
vt 0.109393 0.504206 0.000000
vt 0.109393 0.021288 0.000000
vt 0.122823 0.504206 0.000000
vt 0.122823 0.021288 0.000000
vt 0.169947 0.504206 0.000000
vt 0.169947 0.021288 0.000000
vt 0.048838 0.021288 0.000000
vt 0.048838 0.504206 0.000000
# 10 texture coordinates

o Cube.1
usemtl default
f 3/4/1 4/3/1 2/2/1 1/1/1
f 5/6/2 6/5/2 4/3/2 3/4/2
f 7/8/3 8/7/3 6/5/3 5/6/3
f 1/1/4 2/2/4 8/10/4 7/9/4

v 20.395683 184.870047 42.101786
v 20.395683 125.986790 40.266542
v 15.395683 184.870047 42.101786
v 15.395683 125.986790 40.266542
v 15.395683 184.901199 41.102271
v 15.395683 126.017942 39.267027
v 20.395683 184.901199 41.102271
v 20.395683 126.017942 39.267027
# 8 vertices

vn 0.000000 -0.031152 0.999515
vn -1.000000 0.000000 0.000000
vn 0.000000 0.031152 -0.999515
vn 1.000000 0.000000 0.000000
# 4 normals

vt 0.907898 0.036752 0.000000
vt 0.907898 0.453812 0.000000
vt 0.943295 0.453812 0.000000
vt 0.943295 0.036752 0.000000
vt 0.950374 0.453812 0.000000
vt 0.950374 0.036752 0.000000
vt 0.985772 0.453812 0.000000
vt 0.985772 0.036752 0.000000
vt 0.900819 0.036752 0.000000
vt 0.900819 0.453812 0.000000
# 10 texture coordinates

o Cube.10
usemtl default
f 11/14/5 12/13/5 10/12/5 9/11/5
f 13/16/6 14/15/6 12/13/6 11/14/6
f 15/18/7 16/17/7 14/15/7 13/16/7
f 9/11/8 10/12/8 16/20/8 15/19/8

v 38.804752 184.870047 42.101786
v 38.804752 125.986790 40.266542
v 33.804752 184.870047 42.101786
v 33.804752 125.986790 40.266542
v 33.804752 184.901199 41.102271
v 33.804752 126.017942 39.267027
v 38.804752 184.901199 41.102271
v 38.804752 126.017942 39.267027
# 8 vertices

# 0 normal

vt 0.808555 0.040768 0.000000
vt 0.808555 0.432250 0.000000
vt 0.841781 0.432250 0.000000
vt 0.841781 0.040768 0.000000
vt 0.848427 0.432250 0.000000
vt 0.848427 0.040768 0.000000
vt 0.881653 0.432250 0.000000
vt 0.881653 0.040768 0.000000
vt 0.801910 0.040768 0.000000
vt 0.801910 0.432250 0.000000
# 10 texture coordinates

o Cube.9
usemtl default
f 19/24/5 20/23/5 18/22/5 17/21/5
f 21/26/6 22/25/6 20/23/6 19/24/6
f 23/28/7 24/27/7 22/25/7 21/26/7
f 17/21/8 18/22/8 24/30/8 23/29/8

v 1.819678 184.870047 42.101786
v 1.819678 125.986790 40.266542
v -3.180322 184.870047 42.101786
v -3.180322 125.986790 40.266542
v -3.180322 184.901199 41.102271
v -3.180322 126.017942 39.267027
v 1.819678 184.901199 41.102271
v 1.819678 126.017942 39.267027
# 8 vertices

# 0 normal

vt 0.693500 0.010306 0.000000
vt 0.693500 0.351864 0.000000
vt 0.722489 0.351864 0.000000
vt 0.722489 0.010306 0.000000
vt 0.728287 0.351864 0.000000
vt 0.728287 0.010306 0.000000
vt 0.757276 0.351864 0.000000
vt 0.757276 0.010306 0.000000
vt 0.687702 0.010306 0.000000
vt 0.687702 0.351864 0.000000
# 10 texture coordinates

o Cube.8
usemtl default
f 27/34/5 28/33/5 26/32/5 25/31/5
f 29/36/6 30/35/6 28/33/6 27/34/6
f 31/38/7 32/37/7 30/35/7 29/36/7
f 25/31/8 26/32/8 32/40/8 31/39/8

v 51.083437 183.769374 42.108479
v -20.828413 183.769374 42.108479
v 51.083437 200.721874 43.591631
v -20.828413 200.721874 43.591631
v 51.083437 200.896186 41.599241
v -20.828413 200.896186 41.599241
v 51.083437 183.943685 40.116090
v -20.828413 183.943685 40.116090
# 8 vertices

vn 0.000000 -0.087156 0.996195
vn 0.000000 0.996195 0.087151
vn 0.000000 0.087156 -0.996195
vn 0.000000 -0.996195 -0.087151
# 4 normals

vt 0.245584 0.005731 0.000000
vt 0.245584 0.345416 0.000000
vt 0.325967 0.345416 0.000000
vt 0.325967 0.005731 0.000000
vt 0.335414 0.345416 0.000000
vt 0.335414 0.005731 0.000000
vt 0.415797 0.345416 0.000000
vt 0.415797 0.005731 0.000000
vt 0.236137 0.005731 0.000000
vt 0.236137 0.345416 0.000000
# 10 texture coordinates

o Cube.6
usemtl default
f 35/44/9 36/43/9 34/42/9 33/41/9
f 37/46/10 38/45/10 36/43/10 35/44/10
f 39/48/11 40/47/11 38/45/11 37/46/11
f 33/41/12 34/42/12 40/50/12 39/49/12

v 53.798920 6.801153 -33.247704
v 53.798920 89.511487 -33.247704
v 59.569581 6.801153 -33.247704
v 59.569581 89.511487 -33.247704
v 59.569581 6.801153 -39.018366
v 59.569581 89.511487 -39.018366
v 53.798920 6.801153 -39.018366
v 53.798920 89.511487 -39.018366
# 8 vertices

vn 0.000000 0.000000 1.000000
vn 0.000000 0.000000 -1.000000
# 2 normals

vt 0.272610 0.667124 0.000000
vt 0.832437 0.667124 0.000000
vt 0.832437 0.628065 0.000000
vt 0.272610 0.628065 0.000000
vt 0.832437 0.589006 0.000000
vt 0.272610 0.589006 0.000000
vt 0.832437 0.549947 0.000000
vt 0.272610 0.549947 0.000000
vt 0.272610 0.706182 0.000000
vt 0.832437 0.706182 0.000000
# 10 texture coordinates

o Cube.5
usemtl default
f 43/54/13 44/53/13 42/52/13 41/51/13
f 45/56/8 46/55/8 44/53/8 43/54/8
f 47/58/14 48/57/14 46/55/14 45/56/14
f 41/51/6 42/52/6 48/60/6 47/59/6

v -28.554659 6.801153 -33.158009
v -28.554659 89.511487 -33.158009
v -22.783998 6.801153 -33.158009
v -22.783998 89.511487 -33.158009
v -22.783998 6.801153 -38.928670
v -22.783998 89.511487 -38.928670
v -28.554659 6.801153 -38.928670
v -28.554659 89.511487 -38.928670
# 8 vertices

# 0 normal

vt 0.272369 0.475837 0.000000
vt 0.768634 0.475837 0.000000
vt 0.768634 0.441212 0.000000
vt 0.272368 0.441212 0.000000
vt 0.768634 0.406588 0.000000
vt 0.272368 0.406588 0.000000
vt 0.768634 0.371964 0.000000
vt 0.272368 0.371964 0.000000
vt 0.272369 0.510461 0.000000
vt 0.768634 0.510461 0.000000
# 10 texture coordinates

o Cube.4
usemtl default
f 51/64/13 52/63/13 50/62/13 49/61/13
f 53/66/8 54/65/8 52/63/8 51/64/8
f 55/68/14 56/67/14 54/65/14 53/66/14
f 49/61/6 50/62/6 56/70/6 55/69/6

v -25.629753 6.801153 41.613067
v -25.629753 89.511487 41.613067
v -19.859092 6.801153 41.613067
v -19.859092 89.511487 41.613067
v -19.859092 6.801153 35.842406
v -19.859092 89.511487 35.842406
v -25.629753 6.801153 35.842406
v -25.629753 89.511487 35.842406
v -25.629753 103.633873 41.602088
v -19.859092 103.633873 41.602088
v -19.859092 104.136819 35.853385
v -25.629753 104.136819 35.853385
v -25.629753 137.177864 42.676494
v -19.859092 137.177864 42.676494
v -19.859092 137.680810 36.927791
v -25.629753 137.680810 36.927791
v -25.629753 188.231989 44.787050
v -19.859092 188.231989 44.787050
v -19.859092 188.734936 39.038348
v -25.629753 188.734936 39.038348
v -25.629753 203.674801 45.632570
v -19.859092 203.674801 45.632570
v -19.859092 204.177747 39.883868
v -25.629753 204.177747 39.883868
# 24 vertices

vn 0.000000 0.000389 1.000000
vn 0.000000 0.000375 -1.000000
vn 0.000000 0.996195 0.087156
vn 0.000000 -0.054670 0.998504
vn 0.000000 -0.047988 0.998848
vn 0.000000 0.016384 -0.999866
vn 0.000000 -0.015620 0.999878
vn 0.000000 0.036659 -0.999328
vn 0.000000 -0.036659 0.999328
vn 0.000000 0.047988 -0.998848
vn 0.000000 0.054670 -0.998504
# 11 normals

vt 0.263212 0.814749 0.000000
vt 0.544625 0.814749 0.000000
vt 0.544625 0.795115 0.000000
vt 0.263212 0.795115 0.000000
vt 0.263212 0.781439 0.000000
vt 0.544625 0.781439 0.000000
vt 0.544625 0.761805 0.000000
vt 0.263212 0.761805 0.000000
vt 0.544625 0.742171 0.000000
vt 0.263212 0.742171 0.000000
vt 0.263212 0.848059 0.000000
vt 0.544625 0.848059 0.000000
vt 0.544625 0.828425 0.000000
vt 0.263212 0.828425 0.000000
vt 0.933054 0.814749 0.000000
vt 0.934765 0.814749 0.000000
vt 0.934765 0.795115 0.000000
vt 0.933054 0.795115 0.000000
vt 0.880511 0.795115 0.000000
vt 0.880511 0.814749 0.000000
vt 0.592675 0.828462 0.000000
vt 0.594386 0.848021 0.000000
vt 0.594386 0.742171 0.000000
vt 0.594386 0.761805 0.000000
vt 0.594386 0.761842 0.000000
vt 0.592675 0.781401 0.000000
vt 0.592675 0.795115 0.000000
vt 0.592675 0.814749 0.000000
vt 0.706805 0.824806 0.000000
vt 0.708516 0.844366 0.000000
vt 0.708516 0.742171 0.000000
vt 0.708516 0.761805 0.000000
vt 0.708516 0.765498 0.000000
vt 0.706805 0.785057 0.000000
vt 0.706805 0.795115 0.000000
vt 0.706805 0.814749 0.000000
vt 0.880511 0.817625 0.000000
vt 0.882222 0.837185 0.000000
vt 0.882222 0.742171 0.000000
vt 0.882222 0.761805 0.000000
vt 0.882222 0.772678 0.000000
vt 0.880511 0.792238 0.000000
vt 0.934765 0.834308 0.000000
vt 0.934765 0.742171 0.000000
vt 0.934765 0.761805 0.000000
vt 0.934765 0.775555 0.000000
# 46 texture coordinates

o Cube.3
usemtl default
f 59/74/13 60/73/15 58/72/15 57/71/13
f 61/78/8 62/77/8 60/76/8 59/75/8
f 63/80/14 64/79/16 62/77/16 61/78/14
f 57/84/6 58/83/6 64/82/6 63/81/6
f 78/88/17 79/87/17 80/86/17 77/85/17
f 77/85/18 73/90/19 74/89/19 78/88/18
f 68/92/6 64/82/6 58/83/6 65/91/6
f 67/94/20 62/77/16 64/79/16 68/93/20
f 66/96/8 60/76/8 62/77/8 67/95/8
f 65/98/21 58/72/15 60/73/15 66/97/21
f 72/100/6 68/92/6 65/91/6 69/99/6
f 71/102/22 67/94/20 68/93/20 72/101/22
f 70/104/8 66/96/8 67/95/8 71/103/8
f 69/106/23 65/98/21 66/97/21 70/105/23
f 76/108/6 72/100/6 69/99/6 73/107/6
f 75/110/24 71/102/22 72/101/22 76/109/24
f 74/112/8 70/104/8 71/103/8 75/111/8
f 73/90/19 69/106/23 70/105/23 74/89/19
f 80/113/6 76/108/6 73/107/6 77/85/6
f 79/115/25 75/110/24 76/109/24 80/114/25
f 78/88/8 74/112/8 75/111/8 79/116/8

v 51.437352 6.801153 41.613067
v 51.437352 89.511487 41.613067
v 57.208014 6.801153 41.613067
v 57.208014 89.511487 41.613067
v 57.208014 6.801153 35.842406
v 57.208014 89.511487 35.842406
v 51.437352 6.801153 35.842406
v 51.437352 89.511487 35.842406
v 51.437352 103.633873 41.602088
v 57.208014 103.633873 41.602088
v 57.208014 104.136819 35.853385
v 51.437352 104.136819 35.853385
v 51.437352 137.177864 42.676494
v 57.208014 137.177864 42.676494
v 57.208014 137.680810 36.927791
v 51.437352 137.680810 36.927791
v 51.437352 188.231989 44.787050
v 57.208014 188.231989 44.787050
v 57.208014 188.734936 39.038348
v 51.437352 188.734936 39.038348
v 51.437352 203.674801 45.632570
v 57.208014 203.674801 45.632570
v 57.208014 204.177747 39.883868
v 51.437352 204.177747 39.883868
# 24 vertices

vn 0.000000 0.000389 1.000000
vn 0.000000 0.000375 -1.000000
vn 0.000000 0.996195 0.087156
vn 0.000000 -0.054670 0.998505
vn 0.000000 -0.015620 0.999878
vn 0.000000 0.054670 -0.998505
# 6 normals

vt 0.266254 0.945637 0.000000
vt 0.551239 0.945637 0.000000
vt 0.551239 0.925754 0.000000
vt 0.266254 0.925754 0.000000
vt 0.266254 0.911904 0.000000
vt 0.551239 0.911904 0.000000
vt 0.551239 0.892021 0.000000
vt 0.266254 0.892021 0.000000
vt 0.551239 0.872137 0.000000
vt 0.266254 0.872137 0.000000
vt 0.266254 0.979370 0.000000
vt 0.551239 0.979370 0.000000
vt 0.551239 0.959486 0.000000
vt 0.266254 0.959486 0.000000
vt 0.944598 0.945637 0.000000
vt 0.946331 0.945637 0.000000
vt 0.946331 0.925754 0.000000
vt 0.944598 0.925754 0.000000
vt 0.891389 0.925754 0.000000
vt 0.891389 0.945637 0.000000
vt 0.599899 0.959524 0.000000
vt 0.601632 0.979332 0.000000
vt 0.601632 0.872137 0.000000
vt 0.601632 0.892021 0.000000
vt 0.601632 0.892059 0.000000
vt 0.599899 0.911866 0.000000
vt 0.599899 0.925754 0.000000
vt 0.599899 0.945637 0.000000
vt 0.715478 0.955822 0.000000
vt 0.717210 0.975630 0.000000
vt 0.717210 0.872137 0.000000
vt 0.717210 0.892021 0.000000
vt 0.717210 0.895760 0.000000
vt 0.715478 0.915568 0.000000
vt 0.715478 0.925754 0.000000
vt 0.715478 0.945637 0.000000
vt 0.891389 0.948550 0.000000
vt 0.893122 0.968358 0.000000
vt 0.893122 0.872137 0.000000
vt 0.893122 0.892021 0.000000
vt 0.893122 0.903033 0.000000
vt 0.891389 0.922840 0.000000
vt 0.946331 0.965444 0.000000
vt 0.946331 0.872137 0.000000
vt 0.946331 0.892021 0.000000
vt 0.946331 0.905946 0.000000
# 46 texture coordinates

o Cube.2
usemtl default
f 83/120/13 84/119/26 82/118/26 81/117/13
f 85/124/8 86/123/8 84/122/8 83/121/8
f 87/126/14 88/125/27 86/123/27 85/124/14
f 81/130/6 82/129/6 88/128/6 87/127/6
f 102/134/28 103/133/28 104/132/28 101/131/28
f 101/131/29 97/136/19 98/135/19 102/134/29
f 92/138/6 88/128/6 82/129/6 89/137/6
f 91/140/20 86/123/27 88/125/27 92/139/20
f 90/142/8 84/122/8 86/123/8 91/141/8
f 89/144/30 82/118/26 84/119/26 90/143/30
f 96/146/6 92/138/6 89/137/6 93/145/6
f 95/148/22 91/140/20 92/139/20 96/147/22
f 94/150/8 90/142/8 91/141/8 95/149/8
f 93/152/23 89/144/30 90/143/30 94/151/23
f 100/154/6 96/146/6 93/145/6 97/153/6
f 99/156/24 95/148/22 96/147/22 100/155/24
f 98/158/8 94/150/8 95/149/8 99/157/8
f 97/136/19 93/152/23 94/151/23 98/135/19
f 104/159/6 100/154/6 97/153/6 101/131/6
f 103/161/31 99/156/24 100/155/24 104/160/31
f 102/134/8 98/158/8 99/157/8 103/162/8

v -26.039220 86.281466 41.617000
v -26.039220 90.938792 41.617000
v 57.194779 86.281466 41.617000
v 57.194779 90.938792 41.617000
v 59.958148 86.433310 -39.215128
v 59.958148 91.399882 -39.215128
v -28.802589 86.433310 -39.215128
v -28.802589 91.399882 -39.215128
# 8 vertices

vn 0.999416 0.000000 0.034167
vn -0.999416 0.000000 0.034167
vn 0.000000 0.999984 0.005704
vn 0.000000 -0.999998 -0.001879
# 4 normals

vt 0.032894 0.767027 0.000000
vt 0.032894 0.962411 0.000000
vt 0.234251 0.962411 0.000000
vt 0.234251 0.767027 0.000000
vt 0.240936 0.981754 0.000000
vt 0.240936 0.773397 0.000000
vt 0.026209 0.981754 0.000000
vt 0.026209 0.773397 0.000000
# 8 texture coordinates

o Cube.1_1
usemtl default
f 107/166/13 108/165/13 106/164/13 105/163/13
f 109/168/32 110/167/32 108/165/32 107/166/32
f 111/170/14 112/169/14 110/167/14 109/168/14
f 105/163/33 106/164/33 112/169/33 111/170/33
f 108/165/34 110/167/34 112/169/34 106/164/34
f 109/168/35 107/166/35 105/163/35 111/170/35

v -20.165477 77.050538 35.743256
v -20.165477 88.199189 35.743256
v 51.321035 77.050538 35.743256
v 51.321035 88.199189 35.743256
v 53.694387 76.589448 -32.951368
v 53.694387 88.478369 -32.951368
v -22.538829 76.589448 -32.951368
v -22.538829 88.478369 -32.951368
# 8 vertices

vn 0.999404 0.000000 0.034529
vn -0.999404 0.000000 0.034529
vn 0.000000 0.999992 0.004064
vn 0.000000 -0.999977 0.006712
# 4 normals

vt 0.036247 0.553130 0.000000
vt 0.036247 0.745187 0.000000
vt 0.228303 0.745187 0.000000
vt 0.228303 0.553130 0.000000
vt 0.234680 0.749996 0.000000
vt 0.234680 0.545187 0.000000
vt 0.029871 0.749996 0.000000
vt 0.029871 0.545187 0.000000
# 8 texture coordinates

o Cube
usemtl default
f 115/174/13 116/173/13 114/172/13 113/171/13
f 117/176/36 118/175/36 116/173/36 115/174/36
f 119/178/14 120/177/14 118/175/14 117/176/14
f 113/171/37 114/172/37 120/177/37 119/178/37
f 116/173/38 118/175/38 120/177/38 114/172/38
f 117/176/39 115/174/39 113/171/39 119/178/39

