# WaveFront *.obj file (generated by Cinema 4D)

mtllib ./Tea_bag_textured.mtl

v 44.623872 157.558789 78.867479
v 44.623872 192.015878 78.858299
v 81.068694 157.558789 78.877997
v 81.068694 192.015878 78.866555
v 81.068694 157.558789 79.081957
v 81.068694 192.015878 79.093399
v 44.623872 157.558789 79.092474
v 44.623872 192.015878 79.101655
v 44.623872 190.970736 78.250328
v 44.623872 161.374638 78.250328
v 81.068694 190.970736 78.299834
v 81.068694 161.374638 78.299834
v 81.068694 190.970736 79.660120
v 81.068694 161.374638 79.660120
v 44.623872 190.970736 79.709626
v 44.623872 161.374638 79.709626
v 72.200454 161.374638 75.897412
v 53.492112 161.374638 75.897412
v 72.200454 157.558789 78.517781
v 53.492112 157.558789 78.517781
v 53.492112 161.374638 82.062542
v 72.200454 161.374638 82.062542
v 53.492112 157.558789 79.442173
v 72.200454 157.558789 79.442173
v 53.492112 197.782148 79.494032
v 72.200454 197.782148 79.494032
v 72.200454 197.782148 78.465921
v 53.492112 197.782148 78.465921
v 72.200454 190.970736 75.897412
v 53.492112 190.970736 75.897412
v 53.492112 190.970736 82.062542
v 72.200454 190.970736 82.062542
v 47.461709 161.374638 75.897412
v 47.461709 157.558789 78.517781
v 78.230857 161.374638 82.062542
v 78.230857 157.558789 79.442173
v 47.461709 192.900761 79.494032
v 47.461709 192.900761 78.465921
v 47.461709 157.558789 79.442173
v 47.461709 190.970736 75.897412
v 78.230857 192.900761 79.494032
v 78.230857 190.970736 82.062542
v 78.230857 161.374638 75.897412
v 78.230857 157.558789 78.517781
v 47.461709 161.374638 82.062542
v 78.230857 192.900761 78.465921
v 78.230857 190.970736 75.897412
v 47.461709 190.970736 82.062542
# 48 vertices

vn -0.511915 -0.168698 -0.842309
vn -0.268576 -0.240788 -0.932678
vn -0.184458 -0.458469 -0.869357
vn -0.360130 -0.329015 -0.872958
vn 1.000000 0.000000 0.000000
vn 0.519265 -0.165411 0.838453
vn 0.272814 -0.239354 0.931817
vn 0.188121 -0.455707 0.870024
vn 0.366900 -0.322698 0.872497
vn -1.000000 0.000000 0.000000
vn -0.297677 0.954667 0.000000
vn -0.471836 0.881687 0.000000
vn 0.000000 -1.000000 0.000000
vn -0.461310 0.599740 -0.653839
vn -0.307381 0.608060 -0.731970
vn -0.341088 0.328504 -0.880763
vn -0.579888 0.316286 -0.750795
vn 0.471184 0.588100 0.657361
vn 0.312616 0.602580 0.734281
vn 0.345989 0.325348 0.880023
vn 0.587869 0.309427 0.747439
vn 0.000000 -0.296356 -0.955078
vn 0.281989 -0.250571 -0.926119
vn 0.204372 -0.476154 -0.855283
vn 0.000000 -0.566085 -0.824347
vn 0.000000 -0.296356 0.955078
vn -0.277674 -0.251353 0.927210
vn -0.200640 -0.477762 0.855270
vn 0.000000 -0.566085 0.824347
vn 0.333716 0.942674 0.000000
vn 0.471836 0.881686 0.000000
vn -0.333716 0.942674 0.000000
vn 0.149807 0.462213 -0.874023
vn 0.331168 0.578513 -0.745419
vn 0.354295 0.313049 -0.881178
vn 0.076634 0.236445 -0.968618
vn -0.073081 0.481756 -0.873253
vn -0.037511 0.247274 -0.968219
vn -0.149807 0.462213 0.874023
vn -0.329563 0.584801 0.741212
vn -0.351446 0.316545 0.881070
vn -0.076634 0.236445 0.968618
vn 0.073081 0.481756 0.873253
vn 0.037511 0.247274 0.968219
vn 0.535723 -0.185687 -0.823724
vn 0.398359 -0.362028 -0.842761
vn -0.528264 -0.187776 0.828057
vn -0.391446 -0.366022 0.844273
vn 0.297677 0.954667 0.000000
vn 0.367414 0.601290 -0.709547
vn 0.537334 0.318778 -0.780802
vn -0.364032 0.613537 0.700752
vn -0.532447 0.325926 0.781200
# 53 normals

vt 0.105923 0.190787 0.000000
vt 0.167705 0.190787 0.000000
vt 0.167705 0.107713 0.000000
vt 0.105923 0.107713 0.000000
vt 0.039031 0.118704 0.000000
vt 0.024409 0.215211 0.000000
vt 0.058812 0.215211 0.000000
vt 0.044189 0.118704 0.000000
vt 0.167705 0.190787 0.000000
vt 0.167705 0.107713 0.000000
vt 0.038974 0.118704 0.000000
vt 0.023365 0.215211 0.000000
vt 0.060273 0.215211 0.000000
vt 0.044664 0.118704 0.000000
vt 0.012497 0.081527 0.000000
vt 0.087573 0.091907 0.000000
vt 0.087573 0.064708 0.000000
vt 0.012497 0.075089 0.000000
vt 0.012451 0.032372 0.000000
vt 0.087527 0.041624 0.000000
vt 0.087527 0.017169 0.000000
vt 0.012451 0.026420 0.000000
vt 0.105923 0.857865 0.000000
vt 0.167705 0.877130 0.000000
vt 0.167705 0.835112 0.000000
vt 0.105923 0.835112 0.000000
vt 0.024409 0.963731 0.000000
vt 0.038742 0.990164 0.000000
vt 0.044479 0.990164 0.000000
vt 0.058812 0.963731 0.000000
vt 0.167705 0.877130 0.000000
vt 0.167705 0.835112 0.000000
vt 0.023365 0.963731 0.000000
vt 0.044897 0.990164 0.000000
vt 0.060273 0.963731 0.000000
vt 0.706283 0.190787 0.000000
vt 0.837568 0.190787 0.000000
vt 0.837568 0.107713 0.000000
vt 0.706283 0.107713 0.000000
vt 0.298991 0.190787 0.000000
vt 0.298991 0.107713 0.000000
vt 0.706283 0.190787 0.000000
vt 0.706283 0.107713 0.000000
vt 0.742043 0.091907 0.000000
vt 0.901580 0.091907 0.000000
vt 0.901580 0.064708 0.000000
vt 0.742043 0.064708 0.000000
vt 0.247109 0.091907 0.000000
vt 0.247109 0.064708 0.000000
vt 0.741998 0.041624 0.000000
vt 0.901534 0.041624 0.000000
vt 0.901534 0.017169 0.000000
vt 0.741998 0.017169 0.000000
vt 0.247063 0.041624 0.000000
vt 0.247063 0.017169 0.000000
vt 0.706283 0.983400 0.000000
vt 0.837568 0.877130 0.000000
vt 0.837568 0.835112 0.000000
vt 0.706283 0.835112 0.000000
vt 0.298991 0.983400 0.000000
vt 0.298991 0.835112 0.000000
vt 0.706283 0.983400 0.000000
vt 0.706283 0.835112 0.000000
vt 0.899350 0.190787 0.000000
vt 0.899350 0.107713 0.000000
vt 0.976655 0.081308 0.000000
vt 0.976655 0.075307 0.000000
vt 0.976610 0.032094 0.000000
vt 0.976610 0.026698 0.000000
vt 0.899350 0.857865 0.000000
vt 0.899350 0.835112 0.000000
# 71 texture coordinates

o Tea_bag
usemtl Tea Bag Texture
f 10/1/1 33/2/2 34/3/3 1/4/4
f 3/5/5 12/6/5 14/7/5 5/8/5
f 14/1/6 35/9/7 36/10/8 5/4/9
f 7/11/10 16/12/10 10/13/10 1/14/10
f 8/15/11 37/16/12 38/17/12 2/18/11
f 1/19/13 34/20/13 39/21/13 7/22/13
f 2/23/14 38/24/15 40/25/16 9/26/17
f 9/26/17 40/25/16 33/2/2 10/1/1
f 11/27/5 4/28/5 6/29/5 13/30/5
f 12/6/5 11/27/5 13/30/5 14/7/5
f 6/23/18 41/31/19 42/32/20 13/26/21
f 13/26/21 42/32/20 35/9/7 14/1/6
f 15/33/10 8/28/10 2/34/10 9/35/10
f 16/12/10 15/33/10 9/35/10 10/13/10
f 17/36/22 43/37/23 44/38/24 19/39/25
f 18/40/22 17/36/22 19/39/25 20/41/25
f 21/42/26 45/37/27 39/38/28 23/43/29
f 22/40/26 21/42/26 23/43/29 24/41/29
f 26/44/30 41/45/31 46/46/31 27/47/30
f 25/48/32 26/44/30 27/47/30 28/49/32
f 19/50/13 44/51/13 36/52/13 24/53/13
f 20/54/13 19/50/13 24/53/13 23/55/13
f 27/56/33 46/57/34 47/58/35 29/59/36
f 28/60/37 27/56/33 29/59/36 30/61/38
f 29/59/36 47/58/35 43/37/23 17/36/22
f 30/61/38 29/59/36 17/36/22 18/40/22
f 25/62/39 37/57/40 48/58/41 31/63/42
f 26/60/43 25/62/39 31/63/42 32/61/44
f 31/63/42 48/58/41 45/37/27 21/42/26
f 32/61/44 31/63/42 21/42/26 22/40/26
f 33/2/2 18/40/22 20/41/25 34/3/3
f 35/9/7 22/40/26 24/41/29 36/10/8
f 37/16/12 25/48/32 28/49/32 38/17/12
f 34/20/13 20/54/13 23/55/13 39/21/13
f 38/24/15 28/60/37 30/61/38 40/25/16
f 40/25/16 30/61/38 18/40/22 33/2/2
f 41/31/19 26/60/43 32/61/44 42/32/20
f 42/32/20 32/61/44 22/40/26 35/9/7
f 43/37/23 12/64/45 3/65/46 44/38/24
f 45/37/27 16/64/47 7/65/48 39/38/28
f 41/45/31 6/66/49 4/67/49 46/46/31
f 44/51/13 3/68/13 5/69/13 36/52/13
f 46/57/34 4/70/50 11/71/51 47/58/35
f 47/58/35 11/71/51 12/64/45 43/37/23
f 37/57/40 8/70/52 15/71/53 48/58/41
f 48/58/41 15/71/53 16/64/47 45/37/27

