# WaveFront *.obj file (generated by Cinema 4D)

mtllib ./BreadOven.mtl

v -15.000000 100.000000 95.000000
v -15.000000 130.000000 65.000000
v 85.000000 100.000000 95.000000
v 85.000000 130.000000 65.000000
v 85.000000 100.000000 55.000000
v 85.000000 130.000000 55.000000
v -15.000000 100.000000 55.000000
v -15.000000 130.000000 55.000000
v 71.250000 -112.500000 -76.250000
v 60.000000 -97.500000 -65.000000
v 78.750000 -112.500000 -76.250000
v 90.000000 -97.500000 -65.000000
v 78.750000 -112.500000 -83.750000
v 90.000000 -97.500000 -95.000000
v 71.250000 -112.500000 -83.750000
v 60.000000 -97.500000 -95.000000
v -78.750000 -112.500000 -76.250000
v -90.000000 -97.500000 -65.000000
v -71.250000 -112.500000 -76.250000
v -60.000000 -97.500000 -65.000000
v -71.250000 -112.500000 -83.750000
v -60.000000 -97.500000 -95.000000
v -78.750000 -112.500000 -83.750000
v -90.000000 -97.500000 -95.000000
v 71.250000 -112.500000 83.750000
v 60.000000 -97.500000 95.000000
v 78.750000 -112.500000 83.750000
v 90.000000 -97.500000 95.000000
v 78.750000 -112.500000 76.250000
v 90.000000 -97.500000 65.000000
v 71.250000 -112.500000 76.250000
v 60.000000 -97.500000 65.000000
v -78.750000 -112.500000 83.750000
v -90.000000 -97.500000 95.000000
v -71.250000 -112.500000 83.750000
v -60.000000 -97.500000 95.000000
v -71.250000 -112.500000 76.250000
v -60.000000 -97.500000 65.000000
v -78.750000 -112.500000 76.250000
v -90.000000 -97.500000 65.000000
v -97.071068 -97.071068 -100.000000
v -97.071068 -97.071068 100.000000
v -97.071068 97.071068 100.000000
v -97.071068 97.071068 -100.000000
v 97.071068 -97.071068 100.000000
v 97.071068 -97.071068 -100.000000
v 97.071068 97.071068 -100.000000
v 97.071068 97.071068 100.000000
v -90.000000 -100.000000 100.000000
v -100.000000 -90.000000 100.000000
v -100.000000 90.000000 100.000000
v -90.000000 100.000000 100.000000
v 100.000000 -90.000000 100.000000
v 90.000000 -100.000000 100.000000
v 90.000000 100.000000 100.000000
v 100.000000 90.000000 100.000000
v 90.000000 -100.000000 -100.000000
v 100.000000 -90.000000 -100.000000
v 100.000000 90.000000 -100.000000
v 90.000000 100.000000 -100.000000
v -100.000000 -90.000000 -100.000000
v -90.000000 -100.000000 -100.000000
v -90.000000 100.000000 -100.000000
v -100.000000 90.000000 -100.000000
v -90.000000 -80.000000 100.000000
v -90.000000 80.000000 100.000000
v 90.000000 -80.000000 100.000000
v 90.000000 80.000000 100.000000
v -90.000000 -80.000000 -85.000000
v -90.000000 80.000000 -85.000000
v 90.000000 -80.000000 -85.000000
v 90.000000 80.000000 -85.000000
v -96.620000 -71.449300 96.620000
v -96.620000 -68.550700 96.620000
v 96.620000 -71.449300 96.620000
v 96.620000 -68.550700 96.620000
v 96.620000 -71.449300 -96.620000
v 96.620000 -68.550700 -96.620000
v -96.620000 -71.449300 -96.620000
v -96.620000 -68.550700 -96.620000
# 80 vertices

vn 0.000000 0.707107 0.707107
vn 1.000000 0.000000 0.000000
vn 0.000000 0.000000 -1.000000
vn -1.000000 0.000000 0.000000
vn 0.000000 1.000000 0.000000
vn 0.000000 -0.600000 0.800000
vn 0.800000 -0.600000 0.000000
vn 0.000000 -0.600000 -0.800000
vn -0.800000 -0.600000 0.000000
vn 0.000000 -1.000000 0.000000
vn 0.000000 0.000000 1.000000
vn 0.980785 -0.195090 0.000000
vn 0.980785 0.195090 0.000000
vn -0.980785 -0.195090 0.000000
vn -0.980785 0.195090 0.000000
vn -0.195090 0.980785 0.000000
vn 0.195090 0.980785 0.000000
vn -0.195090 -0.980785 0.000000
vn 0.195090 -0.980785 0.000000
vn 0.382683 0.923880 0.000000
vn 0.382683 -0.923880 0.000000
vn -0.382683 0.923880 0.000000
vn -0.382683 -0.923880 0.000000
vn 0.923880 0.382683 0.000000
vn 0.923880 -0.382683 0.000000
vn -0.923880 0.382683 0.000000
vn -0.923880 -0.382683 0.000000
# 27 normals

vt 0.326245 0.932108 0.000000
vt 0.670479 0.932108 0.000000
vt 0.670479 0.269870 0.000000
vt 0.326245 0.269870 0.000000
vt 0.569655 0.004975 0.000000
vt 0.326245 0.004975 0.000000
vt 0.995025 0.269870 0.000000
vt 0.751615 0.269870 0.000000
vt 0.751615 0.932108 0.000000
vt 0.995025 0.932108 0.000000
vt 0.427069 0.998332 0.000000
vt 0.670479 0.998332 0.000000
vt 0.964835 0.807208 0.000000
vt 0.990975 0.847966 0.000000
vt 0.921267 0.847966 0.000000
vt 0.947408 0.807208 0.000000
vt 0.903840 0.831663 0.000000
vt 0.903840 0.766450 0.000000
vt 0.947408 0.790905 0.000000
vt 0.921267 0.750147 0.000000
vt 0.990975 0.750147 0.000000
vt 0.964835 0.790905 0.000000
vt 1.008402 0.766450 0.000000
vt 1.008402 0.831663 0.000000
vt -0.048142 0.140036 0.000000
vt -0.048142 -0.281983 0.000000
vt -0.053927 -0.266613 0.000000
vt -0.053927 0.124665 0.000000
vt 0.335301 -0.281983 0.000000
vt 0.335301 0.140036 0.000000
vt 0.341086 0.124665 0.000000
vt 0.341086 -0.266613 0.000000
vt 0.831321 0.896964 0.000000
vt 0.831321 0.474945 0.000000
vt 0.824515 0.490316 0.000000
vt 0.824515 0.881593 0.000000
vt -0.077163 0.931159 0.000000
vt 0.341086 0.931159 0.000000
vt 0.341086 0.583357 0.000000
vt -0.077163 0.583357 0.000000
vt 1.282430 0.474945 0.000000
vt 1.282430 0.896964 0.000000
vt 1.289236 0.881593 0.000000
vt 1.289236 0.490316 0.000000
vt 0.824515 0.457041 0.000000
vt 0.824515 0.065764 0.000000
vt 0.359795 0.065764 0.000000
vt 0.359795 0.457041 0.000000
vt -0.053927 0.549217 0.000000
vt -0.053927 0.157940 0.000000
vt -0.448939 0.157940 0.000000
vt -0.448939 0.549217 0.000000
vt -0.448939 -0.266613 0.000000
vt -0.448939 0.124665 0.000000
vt 0.359795 0.490316 0.000000
vt 0.359795 0.881593 0.000000
vt 0.824515 0.032489 0.000000
vt 0.359795 0.032489 0.000000
vt 0.359795 0.049127 0.000000
vt 0.824515 0.049127 0.000000
vt 0.824515 0.473679 0.000000
vt 0.359795 0.473679 0.000000
vt -0.448939 0.141302 0.000000
vt -0.053927 0.141302 0.000000
vt 0.359795 0.898231 0.000000
vt 0.824515 0.898231 0.000000
vt -0.053927 0.565854 0.000000
vt -0.448939 0.565854 0.000000
vt 1.266000 0.468578 0.000000
vt 1.266000 0.903331 0.000000
vt 0.847751 0.903331 0.000000
vt 0.847751 0.468578 0.000000
vt 0.321335 -0.288350 0.000000
vt 0.321335 0.146403 0.000000
vt -0.034176 -0.288350 0.000000
vt -0.034176 0.146403 0.000000
vt 0.870987 0.490316 0.000000
vt 0.870987 0.881593 0.000000
vt 1.242764 0.881593 0.000000
vt 1.242764 0.490316 0.000000
vt -0.077163 1.333305 0.000000
vt 0.341086 1.333305 0.000000
vt 0.712862 1.333305 0.000000
vt 0.712862 0.931159 0.000000
vt 1.131111 1.333305 0.000000
vt 1.131111 0.931159 0.000000
vt -0.448939 0.931159 0.000000
vt -0.448939 1.333305 0.000000
vt 0.808808 0.014987 0.000000
vt 0.815543 0.014987 0.000000
vt 0.815543 -0.405071 0.000000
vt 0.808808 -0.405071 0.000000
vt 0.359795 0.014987 0.000000
vt 0.359795 -0.405071 0.000000
vt 1.264556 0.014987 0.000000
vt 1.264556 -0.405071 0.000000
# 96 texture coordinates

o BreadOven
usemtl 512Placeholder
f 3/4/1 4/3/1 2/2/1 1/1/1
f 5/6/2 6/5/2 4/3/2 3/4/2
f 7/10/3 8/9/3 6/8/3 5/7/3
f 1/1/4 2/2/4 8/12/4 7/11/4
f 4/3/5 6/8/5 8/9/5 2/2/5
f 11/16/6 12/15/6 10/14/6 9/13/6
f 13/19/7 14/18/7 12/17/7 11/16/7
f 15/22/8 16/21/8 14/20/8 13/19/8
f 9/13/9 10/24/9 16/23/9 15/22/9
f 13/19/10 11/16/10 9/13/10 15/22/10
f 19/13/6 20/24/6 18/23/6 17/22/6
f 21/16/7 22/15/7 20/14/7 19/13/7
f 23/19/8 24/18/8 22/17/8 21/16/8
f 17/22/9 18/21/9 24/20/9 23/19/9
f 21/16/10 19/13/10 17/22/10 23/19/10
f 27/16/6 28/15/6 26/14/6 25/13/6
f 29/19/7 30/18/7 28/17/7 27/16/7
f 31/22/8 32/21/8 30/20/8 29/19/8
f 25/13/9 26/24/9 32/23/9 31/22/9
f 29/19/10 27/16/10 25/13/10 31/22/10
f 35/19/6 36/20/6 34/21/6 33/22/6
f 37/16/7 38/17/7 36/18/7 35/19/7
f 39/13/8 40/14/8 38/15/8 37/16/8
f 33/22/9 34/23/9 40/24/9 39/13/9
f 37/16/10 35/19/10 33/22/10 39/13/10
f 63/28/3 60/27/3 47/26/3 44/25/3
f 57/32/3 62/31/3 41/30/3 46/29/3
f 49/36/11 54/35/11 45/34/11 42/33/11
f 72/40/11 70/39/11 69/38/11 71/37/11
f 55/44/11 52/43/11 43/42/11 48/41/11
f 58/48/12 59/47/13 56/46/13 53/45/12
f 50/52/14 51/51/15 64/50/15 61/49/14
f 52/54/16 55/53/17 60/27/17 63/28/16
f 62/56/18 57/55/19 54/35/19 49/36/18
f 48/60/20 47/59/20 60/58/17 55/57/17
f 46/62/21 45/61/21 54/35/19 57/55/19
f 44/64/22 43/63/22 52/54/16 63/28/16
f 42/66/23 41/65/23 62/56/18 49/36/18
f 48/60/24 56/46/13 59/47/13 47/59/24
f 46/62/25 58/48/12 53/45/12 45/61/25
f 44/64/26 64/50/15 51/51/15 43/63/26
f 42/68/27 50/52/14 61/49/14 41/67/27
f 48/41/11 43/42/11 51/70/11 56/69/11
f 42/33/11 45/34/11 53/72/11 50/71/11
f 46/29/3 41/30/3 61/74/3 58/73/3
f 64/76/3 59/75/3 58/73/3 61/74/3
f 44/25/3 47/26/3 59/75/3 64/76/3
f 65/78/11 50/71/11 53/72/11 67/77/11
f 66/79/11 51/70/11 50/71/11 65/78/11
f 68/80/11 56/69/11 51/70/11 66/79/11
f 67/77/11 53/72/11 56/69/11 68/80/11
f 69/38/5 65/82/5 67/81/5 71/37/5
f 70/84/2 66/83/2 65/82/2 69/38/2
f 72/86/10 68/85/10 66/83/10 70/84/10
f 71/37/4 67/81/4 68/88/4 72/87/4
f 75/92/11 76/91/11 74/90/11 73/89/11
f 77/94/10 75/92/10 73/89/10 79/93/10
f 76/91/5 78/96/5 80/95/5 74/90/5

v 77.500000 52.500000 113.162549
v 77.500000 57.500000 113.162549
v 77.500000 52.500000 135.802630
v 77.500000 57.500000 135.802630
v 82.500000 52.500000 135.802630
v 82.500000 57.500000 135.802630
v 82.500000 52.500000 113.162549
v 82.500000 57.500000 113.162549
v -82.500000 52.500000 113.162549
v -82.500000 57.500000 113.162549
v -82.500000 52.500000 135.802630
v -82.500000 57.500000 135.802630
v -77.500000 52.500000 135.802630
v -77.500000 57.500000 135.802630
v -77.500000 52.500000 113.162549
v -77.500000 57.500000 113.162549
v -100.000000 50.000000 140.000000
v -100.000000 60.000000 140.000000
v 100.000000 50.000000 140.000000
v 100.000000 60.000000 140.000000
v 100.000000 50.000000 130.000000
v 100.000000 60.000000 130.000000
v -100.000000 50.000000 130.000000
v -100.000000 60.000000 130.000000
v -97.071068 -97.071068 105.000000
v -97.071068 97.071068 105.000000
v 97.071068 -97.071068 105.000000
v 97.071068 97.071068 105.000000
v 90.000000 -100.000000 105.000000
v 100.000000 -90.000000 105.000000
v 100.000000 90.000000 105.000000
v 90.000000 100.000000 105.000000
v -100.000000 -90.000000 105.000000
v -90.000000 -100.000000 105.000000
v -90.000000 100.000000 105.000000
v -100.000000 90.000000 105.000000
v -97.071068 -97.071068 115.000000
v -97.071068 97.071068 115.000000
v 97.071068 -97.071068 115.000000
v 97.071068 97.071068 115.000000
v 90.000000 -100.000000 115.000000
v 100.000000 -90.000000 115.000000
v 100.000000 90.000000 115.000000
v 90.000000 100.000000 115.000000
v -100.000000 -90.000000 115.000000
v -90.000000 -100.000000 115.000000
v -90.000000 100.000000 115.000000
v -100.000000 90.000000 115.000000
v -93.458536 -93.458536 115.000000
v -93.458536 93.458536 115.000000
v 93.458536 -93.458536 115.000000
v 93.458536 93.458536 115.000000
v 89.061134 -95.280000 115.000000
v 95.280000 -89.061134 115.000000
v 95.280000 89.061134 115.000000
v 89.061134 95.280000 115.000000
v -95.280000 -89.061134 115.000000
v -89.061134 -95.280000 115.000000
v -89.061134 95.280000 115.000000
v -95.280000 89.061134 115.000000
v -93.458536 -93.458536 105.000000
v -93.458536 93.458536 105.000000
v 93.458536 -93.458536 105.000000
v 93.458536 93.458536 105.000000
v 89.061134 -95.280000 105.000000
v 95.280000 -89.061134 105.000000
v 95.280000 89.061134 105.000000
v 89.061134 95.280000 105.000000
v -95.280000 -89.061134 105.000000
v -89.061134 -95.280000 105.000000
v -89.061134 95.280000 105.000000
v -95.280000 89.061134 105.000000
v -97.071068 -97.071068 120.000000
v -97.071068 97.071068 120.000000
v 97.071068 -97.071068 120.000000
v 97.071068 97.071068 120.000000
v 90.000000 -100.000000 120.000000
v 100.000000 -90.000000 120.000000
v 100.000000 90.000000 120.000000
v 90.000000 100.000000 120.000000
v -100.000000 -90.000000 120.000000
v -90.000000 -100.000000 120.000000
v -90.000000 100.000000 120.000000
v -100.000000 90.000000 120.000000
v -93.458536 -93.458536 120.000000
v -93.458536 93.458536 120.000000
v 93.458536 -93.458536 120.000000
v 93.458536 93.458536 120.000000
v 89.061134 -95.280000 120.000000
v 95.280000 -89.061134 120.000000
v 95.280000 89.061134 120.000000
v 89.061134 95.280000 120.000000
v -95.280000 -89.061134 120.000000
v -89.061134 -95.280000 120.000000
v -89.061134 95.280000 120.000000
v -95.280000 89.061134 120.000000
v -93.458536 -93.458536 99.535202
v -93.458536 93.458536 99.535202
v 93.458536 -93.458536 99.535202
v 93.458536 93.458536 99.535202
v 89.061134 -95.280000 99.535202
v 95.280000 -89.061134 99.535202
v 95.280000 89.061134 99.535202
v 89.061134 95.280000 99.535202
v -95.280000 -89.061134 99.535202
v -89.061134 -95.280000 99.535202
v -89.061134 95.280000 99.535202
v -95.280000 89.061134 99.535202
# 108 vertices

vn -0.382683 0.923880 0.000000
vn -0.195090 0.980785 0.000000
vn 0.195090 0.980785 0.000000
vn 0.382683 0.923880 0.000000
vn 0.382683 -0.923880 0.000000
vn 0.195090 -0.980785 0.000000
vn -0.195090 -0.980785 0.000000
vn -0.382683 -0.923880 0.000000
vn 0.980785 -0.195090 0.000000
vn 0.923880 -0.382683 0.000000
vn -0.923880 -0.382683 0.000000
vn -0.980785 -0.195090 0.000000
vn -0.980785 0.195090 0.000000
vn 0.980785 0.195090 0.000000
vn -0.923880 0.382683 0.000000
vn 0.923880 0.382683 0.000000
vn 0.195091 -0.980785 0.000000
vn 0.382684 -0.923879 0.000000
vn -0.195091 -0.980785 0.000000
vn -0.382684 -0.923879 0.000000
vn -0.195091 0.980785 0.000000
vn -0.382684 0.923879 0.000000
vn 0.195091 0.980785 0.000000
vn 0.382684 0.923879 0.000000
vn -0.923879 0.382684 0.000000
vn -0.980785 0.195091 0.000000
vn 0.980785 0.195091 0.000000
vn 0.923879 0.382684 0.000000
vn 0.980785 -0.195091 0.000000
vn -0.980785 -0.195091 0.000000
vn 0.923879 -0.382684 0.000000
vn -0.923879 -0.382684 0.000000
vn -0.195091 0.980785 0.000000
vn -0.382684 0.923879 0.000000
vn 0.382684 0.923879 0.000000
vn 0.195091 0.980785 0.000000
vn 0.980785 0.195091 0.000000
vn 0.923879 0.382684 0.000000
vn -0.923879 0.382684 0.000000
vn -0.980785 0.195091 0.000000
vn 0.980785 -0.195091 0.000000
vn -0.980785 -0.195091 0.000000
vn -0.923879 -0.382684 0.000000
vn 0.923879 -0.382684 0.000000
vn -0.195091 -0.980785 0.000000
vn 0.195091 -0.980785 0.000000
vn 0.382684 -0.923879 0.000000
vn -0.382684 -0.923879 0.000000
# 48 normals

vt 0.105351 0.572171 0.000000
vt 0.053509 0.572171 0.000000
vt 0.053509 0.336650 0.000000
vt 0.105351 0.336650 0.000000
vt 0.157192 0.572171 0.000000
vt 0.157192 0.336650 0.000000
vt 0.209033 0.336650 0.000000
vt 0.209033 0.572171 0.000000
vt 0.001668 0.572171 0.000000
vt 0.001668 0.336650 0.000000
vt 0.949872 0.894298 0.000000
vt 0.949872 0.790270 0.000000
vt 0.046821 0.790270 0.000000
vt 0.046821 0.894298 0.000000
vt 0.001668 0.790270 0.000000
vt 0.046821 0.686241 0.000000
vt 0.001668 0.686241 0.000000
vt 0.046821 0.582213 0.000000
vt 0.949872 0.686241 0.000000
vt 0.949872 0.582213 0.000000
vt 0.995025 0.686241 0.000000
vt 0.995025 0.790270 0.000000
vt 0.949872 0.998326 0.000000
vt 0.046821 0.998326 0.000000
vt 1.177084 0.422851 0.000000
vt 1.184479 0.404242 0.000000
vt 1.184479 -0.349566 0.000000
vt 1.177084 -0.368176 0.000000
vt 0.418142 -0.368176 0.000000
vt 0.410746 -0.349566 0.000000
vt 0.410746 0.404242 0.000000
vt 0.418142 0.422851 0.000000
vt 0.435997 -0.375885 0.000000
vt 0.435997 0.430560 0.000000
vt 1.159229 0.430560 0.000000
vt 1.159229 -0.375885 0.000000
vt 1.253843 0.145533 0.000000
vt 1.289236 0.145533 0.000000
vt 1.289236 0.130219 0.000000
vt 1.253843 0.130219 0.000000
vt 1.289236 -0.229930 0.000000
vt 1.253843 -0.229930 0.000000
vt 1.253843 1.333175 0.000000
vt 1.289236 1.333175 0.000000
vt 1.289236 1.317861 0.000000
vt 1.253843 1.317861 0.000000
vt 1.253843 0.927085 0.000000
vt 1.289236 0.927085 0.000000
vt 1.289236 0.911771 0.000000
vt 1.253843 0.911771 0.000000
vt 1.289236 0.551622 0.000000
vt 1.253843 0.551622 0.000000
vt 1.289236 0.536309 0.000000
vt 1.253843 0.536309 0.000000
vt 1.253843 0.942399 0.000000
vt 1.289236 0.942399 0.000000
vt 1.289236 0.520995 0.000000
vt 1.253843 0.520995 0.000000
vt 1.289236 0.160846 0.000000
vt 1.253843 0.160846 0.000000
vt 1.253843 1.302548 0.000000
vt 1.289236 1.302548 0.000000
vt 0.356564 0.520055 0.000000
vt 0.349078 0.501217 0.000000
vt 0.349078 1.301961 0.000000
vt 0.356564 1.283123 0.000000
vt 0.331004 1.309764 0.000000
vt 0.331004 0.493414 0.000000
vt -0.401112 1.309764 0.000000
vt -0.401112 0.493414 0.000000
vt -0.419186 0.501217 0.000000
vt -0.419186 1.301961 0.000000
vt -0.426673 0.520055 0.000000
vt -0.426673 1.283123 0.000000
vt -0.422247 0.423696 0.000000
vt -0.437095 0.439172 0.000000
vt -0.408032 0.451720 0.000000
vt -0.404173 0.431499 0.000000
vt 0.331801 0.451720 0.000000
vt 0.327942 0.431499 0.000000
vt 0.360865 0.439172 0.000000
vt 0.346017 0.423696 0.000000
vt 0.346017 -0.377048 0.000000
vt 0.360865 -0.392524 0.000000
vt 0.331801 -0.405071 0.000000
vt 0.327942 -0.384851 0.000000
vt -0.408032 -0.405071 0.000000
vt -0.404173 -0.384851 0.000000
vt -0.437095 -0.392524 0.000000
vt -0.422247 -0.377048 0.000000
vt 0.353503 -0.358210 0.000000
vt 0.372903 -0.362231 0.000000
vt -0.449134 -0.362231 0.000000
vt -0.429734 -0.358210 0.000000
vt -0.449134 0.408880 0.000000
vt -0.429734 0.404858 0.000000
vt 0.353503 0.404858 0.000000
vt 0.372903 0.408880 0.000000
vt 0.415967 1.286313 0.000000
vt 0.396567 1.290335 0.000000
vt 0.408606 1.320628 0.000000
vt 0.423454 1.305152 0.000000
vt 0.423454 0.504408 0.000000
vt 0.408606 0.488932 0.000000
vt 0.396567 0.519224 0.000000
vt 0.415967 0.523246 0.000000
vt 0.441528 0.496605 0.000000
vt 0.437669 0.476384 0.000000
vt 0.437669 1.333175 0.000000
vt 0.441528 1.312955 0.000000
vt 1.173644 0.496605 0.000000
vt 1.177503 0.476384 0.000000
vt 1.177503 1.333175 0.000000
vt 1.173644 1.312955 0.000000
vt 1.206566 1.320628 0.000000
vt 1.191718 1.305152 0.000000
vt 1.191718 0.504408 0.000000
vt 1.206566 0.488932 0.000000
vt 1.199204 1.286313 0.000000
vt 1.218605 1.290335 0.000000
vt 1.218605 0.519224 0.000000
vt 1.199204 0.523246 0.000000
vt 1.236146 0.145533 0.000000
vt 1.236146 0.130219 0.000000
vt 0.296147 0.363317 0.000000
vt 0.296147 0.384477 0.000000
vt 0.314011 0.384477 0.000000
vt 0.314011 0.363317 0.000000
vt 1.236146 -0.229930 0.000000
vt -0.372377 0.363317 0.000000
vt -0.372377 0.384477 0.000000
vt 1.236146 1.333175 0.000000
vt 1.236146 1.317861 0.000000
vt -0.390241 0.363317 0.000000
vt -0.390241 0.384477 0.000000
vt 1.236146 0.927085 0.000000
vt 1.236146 0.911771 0.000000
vt 0.390445 -0.349566 0.000000
vt 0.410746 -0.369709 0.000000
vt 0.390445 -0.369709 0.000000
vt 1.236146 0.551622 0.000000
vt 0.390445 0.404242 0.000000
vt 1.236146 0.536309 0.000000
vt 0.390445 0.424385 0.000000
vt 0.410746 0.424385 0.000000
vt 1.236146 0.942399 0.000000
vt 0.410746 -0.389852 0.000000
vt 0.390445 -0.389852 0.000000
vt 1.236146 0.520995 0.000000
vt 0.390445 0.444528 0.000000
vt 0.410746 0.444528 0.000000
vt 1.236146 0.160846 0.000000
vt 1.159229 0.451720 0.000000
vt 0.435997 0.451720 0.000000
vt 1.236146 1.302548 0.000000
vt 0.435997 -0.397044 0.000000
vt 1.159229 -0.397044 0.000000
vt 0.331875 0.384477 0.000000
vt 0.331875 0.363317 0.000000
vt -0.408105 0.363317 0.000000
vt -0.408105 0.384477 0.000000
vt 0.379026 0.520055 0.000000
vt 0.379026 0.499665 0.000000
vt 0.356564 0.499665 0.000000
vt 0.356564 1.303513 0.000000
vt 0.379026 1.303513 0.000000
vt 0.379026 1.283123 0.000000
vt 0.356564 1.323904 0.000000
vt 0.379026 1.323904 0.000000
vt 0.379026 0.479274 0.000000
vt 0.356564 0.479274 0.000000
vt -0.401112 1.333175 0.000000
vt 0.331004 1.333175 0.000000
vt 0.331004 0.470003 0.000000
vt -0.401112 0.470003 0.000000
vt -0.420675 0.470003 0.000000
vt -0.420675 0.493414 0.000000
vt -0.420675 1.309764 0.000000
vt -0.420675 1.333175 0.000000
vt -0.449134 0.520055 0.000000
vt -0.449134 1.283123 0.000000
vt -0.440238 1.309764 0.000000
vt -0.440238 1.333175 0.000000
vt -0.440238 0.470003 0.000000
vt -0.440238 0.493414 0.000000
# 185 texture coordinates

o Door
usemtl 512Placeholder
f 83/100/4 84/99/4 82/98/4 81/97/4
f 85/102/10 83/100/10 81/97/10 87/101/10
f 87/101/2 88/104/2 86/103/2 85/102/2
f 84/99/5 86/106/5 88/105/5 82/98/5
f 91/100/4 92/102/4 90/101/4 89/97/4
f 93/99/10 91/100/10 89/97/10 95/98/10
f 95/98/2 96/105/2 94/106/2 93/99/2
f 92/102/5 94/103/5 96/104/5 90/101/5
f 99/110/11 100/109/11 98/108/11 97/107/11
f 101/113/2 102/112/2 100/109/2 99/111/2
f 103/116/3 104/115/3 102/112/3 101/114/3
f 97/118/4 98/108/4 104/115/4 103/117/4
f 100/109/5 102/112/5 104/115/5 98/108/5
f 101/120/10 99/110/10 97/107/10 103/119/10
f 132/124/11 136/123/11 139/122/11 130/121/11
f 129/128/11 138/127/11 133/126/11 131/125/11
f 137/130/11 129/128/11 131/125/11 134/129/11
f 134/129/11 135/132/11 140/131/11 137/130/11
f 135/132/11 132/124/11 130/121/11 140/131/11
f 127/136/29 115/135/29 106/134/28 118/133/28
f 124/138/30 112/137/30 115/135/29 127/136/29
f 120/142/31 108/141/31 112/140/30 124/139/30
f 121/146/33 109/145/33 107/144/32 119/143/32
f 126/148/34 114/147/34 109/145/33 121/146/33
f 117/150/35 105/149/35 114/147/34 126/148/34
f 119/143/37 107/144/37 110/152/36 122/151/36
f 125/154/39 113/153/39 105/149/38 117/150/38
f 128/156/40 116/155/40 113/153/39 125/154/39
f 122/151/36 110/152/36 111/158/41 123/157/41
f 118/133/42 106/134/42 116/155/40 128/156/40
f 123/157/41 111/158/41 108/141/43 120/142/43
f 184/162/3 180/161/3 178/160/3 187/159/3
f 188/164/3 178/160/3 180/161/3 183/163/3
f 185/166/3 188/164/3 183/163/3 182/165/3
f 182/165/3 179/168/3 177/167/3 185/166/3
f 177/167/3 179/168/3 181/170/3 186/169/3
f 175/174/11 163/173/11 154/172/11 166/171/11
f 172/176/11 160/175/11 163/173/11 175/174/11
f 168/178/11 156/177/11 160/175/11 172/176/11
f 169/182/11 157/181/11 155/180/11 167/179/11
f 174/184/11 162/183/11 157/181/11 169/182/11
f 165/186/11 153/185/11 162/183/11 174/184/11
f 167/179/11 155/180/11 158/188/11 170/187/11
f 173/190/11 161/189/11 153/185/11 165/186/11
f 176/192/11 164/191/11 161/189/11 173/190/11
f 170/187/11 158/188/11 159/194/11 171/193/11
f 166/171/11 154/172/11 164/191/11 176/192/11
f 171/193/11 159/194/11 156/177/11 168/178/11
f 142/198/3 106/197/3 115/196/3 151/195/3
f 148/202/3 112/201/3 108/200/3 144/199/3
f 151/195/3 115/196/3 112/201/3 148/202/3
f 144/199/3 108/200/3 111/204/3 147/203/3
f 152/206/3 116/205/3 106/197/3 142/198/3
f 147/203/3 111/204/3 110/208/3 146/207/3
f 149/210/3 113/209/3 116/205/3 152/206/3
f 141/212/3 105/211/3 113/209/3 149/210/3
f 146/207/3 110/208/3 107/214/3 143/213/3
f 145/218/3 109/217/3 114/216/3 150/215/3
f 143/213/3 107/214/3 109/217/3 145/218/3
f 150/215/3 114/216/3 105/211/3 141/212/3
f 163/220/29 127/136/29 118/133/28 154/219/28
f 166/224/45 130/223/45 139/222/44 175/221/44
f 160/225/30 124/138/30 127/136/29 163/220/29
f 175/221/44 139/222/44 136/227/46 172/226/46
f 156/229/31 120/142/31 124/139/30 160/228/30
f 172/226/46 136/227/46 132/231/47 168/230/47
f 157/233/33 121/146/33 119/143/32 155/232/32
f 167/236/49 131/235/49 133/126/48 169/234/48
f 162/237/34 126/148/34 121/146/33 157/233/33
f 169/234/48 133/126/48 138/127/50 174/238/50
f 153/239/35 117/150/35 126/148/34 162/237/34
f 174/238/50 138/127/50 129/241/51 165/240/51
f 155/232/37 119/143/37 122/151/36 158/242/36
f 170/244/53 134/243/53 131/235/52 167/236/52
f 161/245/39 125/154/39 117/150/38 153/239/38
f 165/240/55 129/241/55 137/247/54 173/246/54
f 164/248/40 128/156/40 125/154/39 161/245/39
f 173/250/54 137/130/54 140/131/56 176/249/56
f 158/242/36 122/151/36 123/157/41 159/251/41
f 171/253/57 135/132/57 134/129/53 170/252/53
f 154/219/42 118/133/42 128/156/40 164/248/40
f 176/255/56 140/254/56 130/223/58 166/224/58
f 159/251/41 123/157/41 120/142/43 156/229/43
f 168/230/59 132/231/59 135/257/57 171/256/57
f 178/260/61 142/259/61 151/258/60 187/159/60
f 184/162/63 148/263/63 144/262/62 180/261/62
f 187/159/60 151/258/60 148/263/63 184/162/63
f 180/261/65 144/262/65 147/265/64 183/264/64
f 188/267/67 152/266/67 142/259/66 178/260/66
f 183/163/64 147/269/64 146/268/68 182/165/68
f 185/166/69 149/271/69 152/270/67 188/164/67
f 177/273/70 141/272/70 149/271/69 185/166/69
f 182/165/68 146/268/68 143/275/71 179/274/71
f 181/170/73 145/277/73 150/276/72 186/169/72
f 179/274/74 143/275/74 145/279/73 181/278/73
f 186/281/72 150/280/72 141/272/75 177/273/75

